<svg width="1920" height="1080" viewBox="0 0 1920 1080" fill="none" xmlns="http://www.w3.org/2000/svg">
<path d="M1920 0H0V1080H1920V0Z" fill="#BCA9CD"/>
<path d="M774.236 926.147C773.878 926.451 773.609 926.666 773.412 926.791C773.072 927.024 772.768 927.185 772.482 927.293C771.676 927.597 770.387 927.865 768.651 928.098C767.863 928.206 767.273 928.241 766.897 928.188C766.073 928.098 765.447 928.044 765.035 927.991C764.427 927.901 763.854 927.615 763.335 927.167C762.923 926.809 762.708 926.326 762.708 925.735C762.708 925.503 762.744 925.234 762.816 924.948C763.03 924.106 763.621 923.695 764.606 923.695C764.785 923.695 764.964 923.713 765.16 923.731C766.217 923.856 767.022 923.981 767.559 924.089C767.863 924.071 768.15 924.053 768.418 924.053C769.295 924.071 769.976 923.999 770.459 923.856C771.282 923.623 771.658 923.14 771.604 922.442C771.533 921.672 770.871 921.171 769.635 920.902C769.152 920.795 768.221 920.723 766.861 920.67C765.339 920.616 764.194 920.33 763.424 919.81C762.475 919.184 761.938 918.181 761.777 916.767C761.759 916.535 761.742 916.302 761.742 916.034C761.742 915.121 761.956 914.243 762.368 913.438C762.78 912.632 763.281 912.042 763.836 911.666C764.355 911.308 765.089 911.039 766.038 910.86C767.416 910.61 768.561 910.484 769.474 910.484C769.707 910.484 769.904 910.484 770.101 910.502L771.927 910.681C772.947 910.789 773.466 911.308 773.466 912.221C773.466 912.507 773.412 912.794 773.305 913.08C773.126 913.563 772.535 913.796 771.533 913.796C771.3 913.796 770.996 913.778 770.638 913.742C770.047 913.689 769.492 913.653 768.937 913.653C768.114 913.653 767.398 913.724 766.789 913.868C765.787 914.1 765.25 914.691 765.16 915.604C765.089 916.427 765.304 917.018 765.805 917.394C766.181 917.68 766.807 917.877 767.702 917.967C768.472 918.002 769.17 918.038 769.779 918.056C771.479 918.11 772.75 918.45 773.573 919.076C773.985 919.399 774.361 919.989 774.701 920.831C775.005 921.583 775.167 922.281 775.22 922.907C775.256 923.498 775.149 924.142 774.916 924.84C774.665 925.538 774.433 925.986 774.236 926.147V926.147Z" fill="white"/>
<path d="M786.218 913.225C787.704 913.708 788.67 915.23 789.136 917.753C789.225 918.201 789.351 919.364 789.547 921.226C789.565 921.459 789.583 921.727 789.583 922.032C789.583 923.141 789.351 924.197 788.867 925.182C788.384 926.184 787.632 926.936 786.612 927.455C785.663 927.939 784.589 928.153 783.426 928.1C782.155 928.028 781.17 927.777 780.454 927.348C779.649 926.847 779.058 926.202 778.718 925.415C778.449 924.824 778.217 923.839 778.02 922.497C777.823 921.262 777.733 920.242 777.733 919.472C777.733 919.114 777.751 918.81 777.787 918.577C777.948 917.449 778.109 916.679 778.235 916.268C778.467 915.462 778.843 914.8 779.362 914.245C780.275 913.261 781.833 912.831 784.052 912.938C785.072 912.992 785.788 913.082 786.218 913.225V913.225ZM785.842 919.597C785.753 918.631 785.627 917.897 785.43 917.395C785.09 916.554 784.553 916.142 783.819 916.125C782.835 916.107 782.155 916.375 781.797 916.894C781.492 917.342 781.349 918.076 781.367 919.114C781.385 920.456 781.439 921.566 781.492 922.479C781.582 923.786 782.012 924.573 782.781 924.878C783.05 924.985 783.336 925.039 783.623 925.039C784.124 925.039 784.625 924.878 785.108 924.555C785.735 924.144 786.039 923.464 786.039 922.479C786.039 922.354 786.021 922.121 786.003 921.799L785.842 919.597V919.597Z" fill="white"/>
<path d="M799.836 914.958C801.107 915.047 801.769 915.602 801.841 916.623C801.93 917.643 801.554 918.198 800.713 918.251C798.851 918.413 797.527 918.967 796.757 919.934C796.453 920.31 796.31 921.062 796.31 922.225C796.31 922.547 796.328 923.031 796.381 923.657C796.417 924.302 796.435 924.785 796.435 925.107C796.435 926.378 796.202 927.184 795.755 927.488C795.379 927.738 795.057 927.864 794.752 927.864C794.591 927.864 794.448 927.828 794.323 927.774C793.696 927.47 793.267 927.058 793.034 926.575C792.909 926.271 792.783 925.662 792.658 924.731C792.533 923.818 792.408 922.386 792.264 920.471C792.121 918.556 791.978 917.106 791.853 916.139C791.781 915.602 791.745 915.137 791.745 914.761C791.745 913.955 791.888 913.383 792.175 913.078C792.604 912.613 792.98 912.398 793.32 912.416C793.571 912.38 793.804 912.362 794.001 912.362C795.021 912.362 795.612 912.774 795.791 913.615C796.005 914.654 796.041 915.674 795.916 916.694C797.258 915.441 798.565 914.868 799.836 914.958V914.958Z" fill="white"/>
<path d="M811.758 914.958C813.029 915.047 813.691 915.602 813.763 916.623C813.853 917.643 813.477 918.198 812.635 918.251C810.774 918.413 809.449 918.967 808.679 919.934C808.375 920.31 808.232 921.062 808.232 922.225C808.232 922.547 808.25 923.031 808.303 923.657C808.339 924.302 808.357 924.785 808.357 925.107C808.357 926.378 808.124 927.184 807.677 927.488C807.301 927.738 806.979 927.864 806.675 927.864C806.513 927.864 806.37 927.828 806.245 927.774C805.618 927.47 805.189 927.058 804.956 926.575C804.831 926.271 804.706 925.662 804.58 924.731C804.455 923.818 804.33 922.386 804.186 920.471C804.043 918.556 803.9 917.106 803.775 916.139C803.703 915.602 803.667 915.137 803.667 914.761C803.667 913.955 803.811 913.383 804.097 913.078C804.527 912.613 804.902 912.398 805.243 912.416C805.493 912.38 805.726 912.362 805.923 912.362C806.943 912.362 807.534 912.774 807.713 913.615C807.928 914.654 807.963 915.674 807.838 916.694C809.181 915.441 810.487 914.868 811.758 914.958V914.958Z" fill="white"/>
<path d="M823.31 912.455C823.74 912.258 824.134 912.151 824.51 912.151C824.689 912.151 824.868 912.168 825.029 912.222C825.512 912.365 825.834 912.509 826.031 912.634C826.21 912.813 826.318 913.081 826.353 913.439C826.443 914.46 826.514 915.212 826.568 915.731C826.622 916.5 826.479 918.201 826.139 920.832C826.049 921.441 825.995 921.924 825.96 922.3C825.816 923.553 825.691 924.43 825.584 924.949C825.351 926.041 824.993 926.847 824.528 927.348C823.937 927.974 823.024 928.314 821.753 928.332C821.18 928.35 820.572 928.296 819.909 928.189C818.262 927.885 817.242 927.222 816.866 926.166C816.723 925.772 816.687 925.361 816.741 924.913C816.831 924.144 817.26 923.768 818.012 923.768C818.245 923.768 818.424 923.821 818.585 923.911C818.925 924.108 819.14 924.251 819.247 924.341C819.874 924.681 820.267 924.86 820.41 924.842C820.679 924.824 821.055 924.824 821.538 924.824C822.093 924.734 822.487 924.609 822.72 924.43C822.952 924.269 823.113 923.947 823.239 923.463C823.4 922.783 823.507 922.193 823.525 921.673C823.561 921.494 823.579 921.369 823.579 921.28C823.543 921.333 823.346 921.494 822.97 921.799C822.469 922.21 821.556 922.389 820.214 922.336C819.927 922.318 819.498 922.246 818.907 922.103C818.316 921.978 817.922 921.852 817.69 921.727C817.547 921.656 817.421 921.584 817.314 921.494C817.117 921.387 816.92 921.154 816.723 920.796C816.455 920.349 816.293 919.776 816.204 919.078C816.15 918.935 816.114 918.505 816.079 917.771C816.025 916.876 815.989 916.25 815.971 915.91C815.918 915.104 815.882 914.531 815.864 914.227C815.846 913.726 816.025 913.243 816.401 912.777C816.634 912.473 816.956 912.33 817.332 912.33C817.475 912.33 817.672 912.365 817.904 912.437C818.567 912.634 818.889 912.992 818.907 913.493C818.925 913.941 818.925 914.209 818.925 914.263C818.943 914.764 818.961 915.033 818.961 915.068C818.961 915.677 818.943 916.25 818.907 916.787C818.835 917.879 819.068 918.541 819.587 918.738C819.82 918.827 820.106 918.881 820.482 918.935C820.572 918.953 820.84 918.953 821.27 918.953C821.646 918.863 821.914 918.72 822.093 918.505C822.236 918.344 822.38 918.04 822.523 917.61C822.612 917.234 822.666 916.554 822.648 915.587C822.648 914.728 822.684 914.155 822.755 913.887C822.917 913.207 823.113 912.723 823.31 912.455V912.455Z" fill="white"/>
<path d="M828.383 928.326C828.294 928.165 828.24 928.022 828.222 927.933C828.347 927.807 828.544 927.503 828.849 927.02C829.207 926.447 829.421 925.999 829.493 925.677C829.565 925.355 829.69 925.14 829.869 925.033C830.03 924.925 830.298 924.872 830.656 924.872C831.408 924.872 831.784 925.194 831.784 925.82C831.784 926.017 831.748 926.232 831.677 926.465C831.48 927.091 831.086 927.575 830.477 927.951C829.708 928.398 829.099 928.631 828.616 928.631C828.562 928.631 828.473 928.523 828.383 928.326V928.326Z" fill="white"/>
<path d="M855.293 913.04C855.293 912.092 854.827 911.412 853.878 910.982C853.413 910.767 852.679 910.66 851.695 910.678C850.102 910.696 849.028 910.696 848.473 910.713C846.772 910.731 844.982 910.892 843.067 911.161C842.458 911.25 841.993 911.501 841.689 911.931C841.384 912.36 841.223 912.79 841.223 913.202C841.223 913.577 841.384 913.918 841.689 914.222C841.85 914.437 842.19 914.669 842.691 914.92C843.013 915.009 843.371 915.063 843.783 915.081C844.374 915.117 845.251 915.063 846.414 914.938L846.557 917.14C846.611 917.873 846.629 918.93 846.611 920.326C846.593 921.4 846.593 922.724 846.611 924.282C846.611 925.284 846.647 926.125 846.701 926.805C846.736 927.253 846.969 927.611 847.399 927.879C847.792 928.112 848.222 928.237 848.687 928.22C849.099 928.202 849.529 928.148 849.94 928.023C850.549 927.79 850.889 927.056 850.943 925.857C850.943 925.624 850.889 924.783 850.782 923.297C850.639 921.382 850.352 918.554 849.905 914.83C850.316 914.866 850.71 914.884 851.086 914.884C852.196 914.884 853.127 914.723 853.861 914.383C854.809 913.953 855.293 913.506 855.293 913.04V913.04Z" fill="white"/>
<path d="M865.836 913.225C867.322 913.708 868.288 915.23 868.754 917.753C868.843 918.201 868.969 919.364 869.166 921.226C869.183 921.459 869.201 921.727 869.201 922.032C869.201 923.141 868.969 924.197 868.485 925.182C868.002 926.184 867.25 926.936 866.23 927.455C865.281 927.939 864.207 928.153 863.044 928.1C861.773 928.028 860.788 927.777 860.072 927.348C859.267 926.847 858.676 926.202 858.336 925.415C858.068 924.824 857.835 923.839 857.638 922.497C857.441 921.262 857.352 920.242 857.352 919.472C857.352 919.114 857.369 918.81 857.405 918.577C857.566 917.449 857.727 916.679 857.853 916.268C858.085 915.462 858.461 914.8 858.98 914.245C859.893 913.261 861.451 912.831 863.67 912.938C864.691 912.992 865.407 913.082 865.836 913.225V913.225ZM865.46 919.597C865.371 918.631 865.245 917.897 865.049 917.395C864.708 916.554 864.171 916.142 863.438 916.125C862.453 916.107 861.773 916.375 861.415 916.894C861.111 917.342 860.967 918.076 860.985 919.114C861.003 920.456 861.057 921.566 861.111 922.479C861.2 923.786 861.63 924.573 862.399 924.878C862.668 924.985 862.954 925.039 863.241 925.039C863.742 925.039 864.243 924.878 864.726 924.555C865.353 924.144 865.657 923.464 865.657 922.479C865.657 922.354 865.639 922.121 865.621 921.799L865.46 919.597V919.597Z" fill="white"/>
<path d="M888.74 916.391C888.902 916.999 889.063 918.02 889.188 919.47C889.242 919.989 889.313 921.403 889.421 923.676C889.439 923.927 889.439 924.195 889.439 924.482C889.439 926.003 889.188 926.916 888.687 927.202C888.418 927.364 888.132 927.435 887.828 927.435C887.505 927.435 887.165 927.346 886.825 927.149C886.163 926.773 885.841 926.057 885.894 925.001C885.948 924.016 885.984 922.727 886.02 921.099C886.055 919.595 885.859 918.503 885.429 917.823C885.232 917.483 885.017 917.322 884.802 917.322C884.606 917.322 884.391 917.483 884.158 917.823C883.746 918.449 883.532 919.47 883.514 920.902C883.496 922.924 883.388 924.661 883.227 926.075C883.138 926.916 882.708 927.399 881.956 927.543C881.831 927.56 881.688 927.578 881.509 927.578C880.721 927.578 880.131 927.167 879.755 926.343C879.45 925.681 879.307 924.929 879.361 924.07C879.415 922.978 879.468 921.832 879.504 920.597C879.522 919.774 879.45 919.04 879.253 918.414C878.985 917.501 878.502 917.053 877.839 917.053C876.98 917.053 876.407 917.662 876.103 918.879C875.978 919.434 875.888 920.383 875.835 921.743C875.799 922.942 875.817 924.088 875.888 925.198C875.942 925.878 875.87 926.469 875.673 926.97C875.423 927.668 874.993 928.008 874.403 928.008C874.224 928.008 874.027 927.972 873.83 927.883C872.738 927.435 872.201 926.361 872.201 924.696C872.201 924.5 872.201 924.321 872.219 924.124C872.344 922.065 872.183 919.13 871.735 915.335C871.682 914.941 871.664 914.583 871.664 914.243C871.664 913.563 871.771 913.079 871.968 912.775C872.272 912.328 872.827 912.041 873.597 911.916C873.669 911.898 873.776 911.898 873.901 911.898C874.456 911.898 874.922 912.202 875.262 912.811C875.566 913.33 875.709 913.885 875.709 914.476C875.709 914.708 875.691 914.851 875.656 914.923C875.978 914.476 876.515 914.1 877.249 913.777C877.553 913.652 877.875 913.581 878.251 913.581C878.734 913.581 879.271 913.706 879.898 913.956C880.757 914.297 881.33 914.995 881.616 916.015C881.921 915.299 882.368 914.726 882.923 914.279C883.532 913.795 884.194 913.545 884.928 913.527C885.733 913.509 886.413 913.652 887.004 913.939C887.81 914.332 888.4 915.156 888.74 916.391V916.391Z" fill="white"/>
<path d="M909.062 916.391C909.223 916.999 909.384 918.02 909.509 919.47C909.563 919.989 909.634 921.403 909.742 923.676C909.76 923.927 909.76 924.195 909.76 924.482C909.76 926.003 909.509 926.916 909.008 927.202C908.739 927.364 908.453 927.435 908.149 927.435C907.826 927.435 907.486 927.346 907.146 927.149C906.484 926.773 906.162 926.057 906.215 925.001C906.269 924.016 906.305 922.727 906.341 921.099C906.376 919.595 906.18 918.503 905.75 917.823C905.553 917.483 905.338 917.322 905.123 917.322C904.927 917.322 904.712 917.483 904.479 917.823C904.067 918.449 903.853 919.47 903.835 920.902C903.817 922.924 903.709 924.661 903.548 926.075C903.459 926.916 903.029 927.399 902.277 927.543C902.152 927.56 902.009 927.578 901.83 927.578C901.042 927.578 900.452 927.167 900.076 926.343C899.771 925.681 899.628 924.929 899.682 924.07C899.736 922.978 899.789 921.832 899.825 920.597C899.843 919.774 899.771 919.04 899.574 918.414C899.306 917.501 898.823 917.053 898.16 917.053C897.301 917.053 896.728 917.662 896.424 918.879C896.299 919.434 896.209 920.383 896.156 921.743C896.12 922.942 896.138 924.088 896.209 925.198C896.263 925.878 896.191 926.469 895.994 926.97C895.744 927.668 895.314 928.008 894.724 928.008C894.545 928.008 894.348 927.972 894.151 927.883C893.059 927.435 892.522 926.361 892.522 924.696C892.522 924.5 892.522 924.321 892.54 924.124C892.665 922.065 892.504 919.13 892.056 915.335C892.003 914.941 891.985 914.583 891.985 914.243C891.985 913.563 892.092 913.079 892.289 912.775C892.593 912.328 893.148 912.041 893.918 911.916C893.99 911.898 894.097 911.898 894.222 911.898C894.777 911.898 895.243 912.202 895.583 912.811C895.887 913.33 896.03 913.885 896.03 914.476C896.03 914.708 896.012 914.851 895.977 914.923C896.299 914.476 896.836 914.1 897.57 913.777C897.874 913.652 898.196 913.581 898.572 913.581C899.055 913.581 899.592 913.706 900.219 913.956C901.078 914.297 901.651 914.995 901.937 916.015C902.242 915.299 902.689 914.726 903.244 914.279C903.853 913.795 904.515 913.545 905.249 913.527C906.054 913.509 906.735 913.652 907.325 913.939C908.131 914.332 908.721 915.156 909.062 916.391V916.391Z" fill="white"/>
<path d="M919.712 912.455C920.142 912.258 920.536 912.151 920.912 912.151C921.091 912.151 921.27 912.168 921.431 912.222C921.914 912.365 922.236 912.509 922.433 912.634C922.612 912.813 922.72 913.081 922.755 913.439C922.845 914.46 922.917 915.212 922.97 915.731C923.024 916.5 922.881 918.201 922.541 920.832C922.451 921.441 922.397 921.924 922.362 922.3C922.218 923.553 922.093 924.43 921.986 924.949C921.753 926.041 921.395 926.847 920.93 927.348C920.339 927.974 919.426 928.314 918.155 928.332C917.582 928.35 916.974 928.296 916.311 928.189C914.665 927.885 913.644 927.222 913.268 926.166C913.125 925.772 913.089 925.361 913.143 924.913C913.233 924.144 913.662 923.768 914.414 923.768C914.647 923.768 914.826 923.821 914.987 923.911C915.327 924.108 915.542 924.251 915.649 924.341C916.276 924.681 916.669 924.86 916.813 924.842C917.081 924.824 917.457 924.824 917.94 924.824C918.495 924.734 918.889 924.609 919.122 924.43C919.354 924.269 919.516 923.947 919.641 923.463C919.802 922.783 919.909 922.193 919.927 921.673C919.963 921.494 919.981 921.369 919.981 921.28C919.945 921.333 919.748 921.494 919.372 921.799C918.871 922.21 917.958 922.389 916.616 922.336C916.329 922.318 915.9 922.246 915.309 922.103C914.718 921.978 914.325 921.852 914.092 921.727C913.949 921.656 913.823 921.584 913.716 921.494C913.519 921.387 913.322 921.154 913.125 920.796C912.857 920.349 912.696 919.776 912.606 919.078C912.552 918.935 912.517 918.505 912.481 917.771C912.427 916.876 912.391 916.25 912.373 915.91C912.32 915.104 912.284 914.531 912.266 914.227C912.248 913.726 912.427 913.243 912.803 912.777C913.036 912.473 913.358 912.33 913.734 912.33C913.877 912.33 914.074 912.365 914.307 912.437C914.969 912.634 915.291 912.992 915.309 913.493C915.327 913.941 915.327 914.209 915.327 914.263C915.345 914.764 915.363 915.033 915.363 915.068C915.363 915.677 915.345 916.25 915.309 916.787C915.237 917.879 915.47 918.541 915.989 918.738C916.222 918.827 916.508 918.881 916.884 918.935C916.974 918.953 917.242 918.953 917.672 918.953C918.048 918.863 918.316 918.72 918.495 918.505C918.638 918.344 918.782 918.04 918.925 917.61C919.014 917.234 919.068 916.554 919.05 915.587C919.05 914.728 919.086 914.155 919.158 913.887C919.319 913.207 919.516 912.723 919.712 912.455V912.455Z" fill="white"/>
<path d="M942.323 915.746C942.323 916.48 941.983 916.856 941.303 916.856C941.035 916.856 940.677 916.785 940.229 916.641C939.352 916.355 938.582 916.212 937.92 916.212C936.381 916.212 935.342 916.999 934.788 918.592C934.626 919.04 934.555 919.505 934.555 920.024C934.555 920.723 934.698 921.51 934.967 922.387C935.307 923.515 936.041 924.07 937.15 924.07C937.473 924.07 937.938 923.998 938.564 923.837C939.173 923.694 939.638 923.622 939.961 923.622C940.963 923.622 941.625 924.034 941.948 924.858C942.055 925.126 942.109 925.412 942.109 925.699C942.109 926.451 941.607 927.059 940.587 927.525C939.459 927.811 938.672 927.954 938.189 927.972C937.115 928.008 935.933 927.757 934.662 927.238C932.854 926.486 931.87 924.589 931.709 921.528C931.655 920.347 931.691 919.076 931.816 917.697C931.995 915.961 932.282 914.744 932.693 914.046C933.391 912.847 934.931 912.292 937.294 912.345C940.39 912.417 942.073 913.437 942.306 915.388C942.323 915.478 942.323 915.603 942.323 915.746V915.746Z" fill="white"/>
<path d="M950.29 912.413H951.508C951.991 912.413 952.582 912.592 953.262 912.932C953.924 913.29 954.389 913.684 954.64 914.095C954.998 914.668 955.213 915.223 955.302 915.742C955.392 916.333 955.338 917.801 955.105 920.146C955.034 920.879 954.998 921.524 954.998 922.115C954.998 923.332 955.141 924.173 955.446 924.656C955.786 925.211 955.965 925.677 955.965 926.07C955.965 926.249 955.929 926.393 955.875 926.482C955.589 926.948 955.177 927.18 954.622 927.18C954.497 927.18 954.354 927.162 954.21 927.144C953.709 927.055 953.28 926.59 952.904 925.73L952.725 926.088C952.313 926.679 951.633 927.127 950.684 927.449C949.861 927.735 949.037 927.86 948.214 927.807C947.462 927.771 946.854 927.592 946.37 927.252C944.974 926.285 944.276 924.979 944.276 923.314C944.276 922.204 944.67 921.273 945.439 920.521C946.209 919.77 947.158 919.358 948.286 919.268C948.447 919.251 948.661 919.251 948.93 919.251C950.04 919.251 950.971 919.465 951.704 919.913C951.901 920.074 952.08 920.199 952.206 920.289C952.241 920.056 952.259 919.913 952.259 919.895C952.331 919.465 952.367 919.089 952.367 918.767C952.367 918.248 952.277 917.836 952.098 917.496C951.794 916.941 951.436 916.619 951.024 916.53C950.613 916.44 950.076 916.476 949.413 916.619C949.306 916.637 949.181 916.655 949.019 916.655C948.536 916.655 948.071 916.476 947.641 916.1C947.212 915.724 946.997 915.295 946.997 914.811C946.997 914.668 947.033 914.489 947.086 914.292C947.301 913.594 947.623 913.164 948.035 913.003C948.142 912.968 948.232 912.932 948.286 912.896C948.572 912.771 948.787 912.681 948.912 912.628C949.252 912.466 949.718 912.395 950.29 912.413V912.413ZM949.503 924.692C949.879 924.459 950.076 924.137 950.076 923.761C950.076 923.618 950.04 923.439 949.968 923.242C949.753 922.634 949.36 922.329 948.787 922.329C947.802 922.329 947.283 922.705 947.212 923.475C947.14 924.137 947.319 924.603 947.731 924.835C947.928 924.961 948.16 925.014 948.393 925.014C948.805 925.014 949.163 924.907 949.503 924.692Z" fill="white"/>
<path d="M965.283 917.751C964.227 917.751 963.493 918.27 963.081 919.326C962.777 920.114 962.669 921.224 962.723 922.638C962.777 923.515 962.813 924.159 962.848 924.589C962.938 926.594 962.401 927.614 961.219 927.668C959.877 927.721 959.215 927.005 959.215 925.538C959.215 925.019 959.233 924.428 959.268 923.801L959.412 921.26C959.429 920.741 959.358 919.416 959.161 917.268C959 915.442 958.982 914.279 959.107 913.795C959.376 912.739 960.128 912.292 961.363 912.417C961.989 912.489 962.383 912.811 962.508 913.366C962.562 913.706 962.598 914.028 962.598 914.332C962.598 914.565 962.58 914.78 962.544 915.013C963.027 914.565 964.066 914.189 965.641 913.885C966.142 913.795 966.572 913.742 966.912 913.742C967.932 913.742 968.809 914.01 969.579 914.547C970.635 915.281 971.244 916.785 971.387 919.022C971.512 921.009 971.566 922.566 971.548 923.694C971.53 924.822 971.512 925.484 971.494 925.645C971.333 927.22 970.707 927.954 969.579 927.829C968.684 927.739 968.111 927.185 967.878 926.182C967.753 925.609 967.717 924.732 967.771 923.551C967.86 922.047 967.878 920.919 967.86 920.186C967.842 919.308 967.681 918.718 967.395 918.378C967.091 918.055 966.518 917.859 965.659 917.769C965.533 917.751 965.408 917.751 965.283 917.751V917.751Z" fill="white"/>
<path d="M977.257 910.731C977.311 910.821 977.347 910.928 977.329 911.018C977.311 911.805 977.15 912.665 976.845 913.613C976.452 914.884 975.95 915.493 975.36 915.421C974.948 915.367 974.68 915.296 974.536 915.171C974.465 914.992 974.411 914.741 974.393 914.401C974.375 914.132 974.375 913.846 974.357 913.577C974.304 912.736 974.34 912.002 974.501 911.412C974.733 910.517 975.163 910.033 975.807 909.98C976.434 909.926 976.917 910.176 977.257 910.731V910.731Z" fill="white"/>
<path d="M991.542 918.896C991.792 919.075 991.918 919.415 991.9 919.899C991.882 920.31 991.792 920.615 991.595 920.847C991.47 921.008 991.202 921.188 990.79 921.42C990.611 921.528 990.11 921.581 989.268 921.581C988.731 921.581 988.069 921.563 987.264 921.51C987.264 922.19 987.246 923.031 987.21 924.052C987.156 925.251 987.138 926.092 987.138 926.575C987.138 927.059 987.013 927.47 986.745 927.811C986.458 928.186 986.082 928.365 985.599 928.365C985.402 928.365 985.241 928.348 985.116 928.312C984.668 928.186 984.364 927.954 984.221 927.578C984.167 927.417 984.113 927.005 984.077 926.361C984.042 925.645 984.006 924.141 983.988 921.868C983.111 922.083 982.341 922.19 981.715 922.19C980.444 922.19 979.62 921.671 979.28 920.615C979.191 920.346 979.155 920.096 979.155 919.845C979.155 919.38 979.352 919.004 979.728 918.735C980.318 918.324 980.927 918.145 981.571 918.198C982.126 918.252 982.86 918.234 983.791 918.145C983.773 916.05 983.755 914.618 983.737 913.848C983.719 912.846 983.809 912.148 983.988 911.754C984.274 911.128 984.847 910.841 985.724 910.931C986.941 911.056 987.496 911.951 987.389 913.652C987.335 914.439 987.299 915.066 987.282 915.513L987.156 918.091C987.443 918.145 987.675 918.162 987.854 918.162C987.944 918.162 988.033 918.162 988.105 918.145C988.391 918.109 988.714 918.109 989.054 918.145C989.519 918.198 989.841 918.234 990.02 918.252C990.396 918.252 990.915 918.467 991.542 918.896V918.896Z" fill="white"/>
<path d="M1009.59 924.517C1008.69 924.499 1007.69 924.445 1006.6 924.338C1006.65 924.964 1006.69 925.483 1006.69 925.931C1006.69 926.486 1006.63 926.88 1006.54 927.148C1006.29 927.649 1006.04 927.954 1005.79 928.079C1005.52 928.204 1005.11 928.222 1004.54 928.133C1003.62 928.007 1003.19 926.844 1003.28 924.678C1003.02 924.785 1002.71 924.839 1002.39 924.839C1002.03 924.839 1001.64 924.767 1001.21 924.642C1000.4 924.409 1000.01 923.926 1000.01 923.21C1000.01 923.013 1000.04 922.816 1000.13 922.602C1000.26 922.118 1000.69 921.814 1001.39 921.671C1001.96 921.635 1002.53 921.599 1003.11 921.545C1002.98 920.346 1002.78 918.771 1002.51 916.784C1002.46 916.444 1002.44 916.068 1002.44 915.638C1002.44 914.421 1002.75 913.437 1003.36 912.703C1004.16 911.718 1005.15 911.199 1006.31 911.11C1007.29 911.038 1007.99 911.092 1008.42 911.253C1009.01 911.486 1009.44 912.023 1009.67 912.846C1009.73 913.061 1009.76 913.258 1009.76 913.455C1009.76 914.547 1008.96 915.119 1007.35 915.137C1006.35 915.155 1005.88 915.943 1005.97 917.518C1006.06 918.968 1006.13 920.239 1006.22 921.295C1007.08 921.026 1008.15 920.883 1009.42 920.901C1010.68 920.919 1011.39 921.223 1011.55 921.832C1011.61 922.065 1011.64 922.261 1011.64 922.458C1011.64 922.852 1011.55 923.246 1011.36 923.64C1011.05 924.23 1010.46 924.535 1009.59 924.517V924.517Z" fill="white"/>
<path d="M1014.66 916.157C1014.18 915.942 1013.82 915.709 1013.6 915.476C1013.35 915.19 1013.23 914.796 1013.23 914.313C1013.23 914.116 1013.25 913.883 1013.3 913.597C1013.43 912.863 1013.66 912.308 1014.02 911.95C1014.36 911.592 1014.89 911.413 1015.63 911.413C1015.91 911.413 1016.16 911.431 1016.4 911.467C1017.26 911.592 1017.77 912.165 1017.97 913.15C1018.04 913.525 1018.08 913.848 1018.08 914.152C1018.08 914.599 1017.99 914.975 1017.79 915.244C1017.26 916.013 1016.61 916.372 1015.86 916.354C1015.32 916.336 1014.93 916.282 1014.66 916.157ZM1016.04 918.752C1016.2 918.752 1016.41 918.77 1016.72 918.824C1017.24 918.931 1017.58 919.558 1017.76 920.703C1017.86 921.366 1017.9 922.171 1017.85 923.102C1017.83 923.478 1017.88 924.051 1017.97 924.802C1018.06 925.572 1018.11 926.145 1018.1 926.521C1018.08 927.147 1017.81 927.577 1017.33 927.792C1017.06 927.917 1016.79 927.971 1016.49 927.971C1016.2 927.971 1015.91 927.917 1015.61 927.827C1014.93 927.613 1014.52 927.076 1014.39 926.234C1014.34 925.912 1014.34 925.178 1014.39 924.051C1014.48 922.314 1014.53 921.33 1014.57 921.079C1014.77 919.701 1015.18 918.931 1015.84 918.788C1015.86 918.77 1015.93 918.752 1016.04 918.752V918.752Z" fill="white"/>
<path d="M1026.87 917.751C1025.82 917.751 1025.08 918.27 1024.67 919.326C1024.37 920.114 1024.26 921.224 1024.31 922.638C1024.37 923.515 1024.4 924.159 1024.44 924.589C1024.53 926.594 1023.99 927.614 1022.81 927.668C1021.47 927.721 1020.81 927.005 1020.81 925.538C1020.81 925.019 1020.82 924.428 1020.86 923.801L1021 921.26C1021.02 920.741 1020.95 919.416 1020.75 917.268C1020.59 915.442 1020.57 914.279 1020.7 913.795C1020.97 912.739 1021.72 912.292 1022.95 912.417C1023.58 912.489 1023.97 912.811 1024.1 913.366C1024.15 913.706 1024.19 914.028 1024.19 914.332C1024.19 914.565 1024.17 914.78 1024.14 915.013C1024.62 914.565 1025.66 914.189 1027.23 913.885C1027.73 913.795 1028.16 913.742 1028.5 913.742C1029.52 913.742 1030.4 914.01 1031.17 914.547C1032.23 915.281 1032.83 916.785 1032.98 919.022C1033.1 921.009 1033.16 922.566 1033.14 923.694C1033.12 924.822 1033.1 925.484 1033.09 925.645C1032.92 927.22 1032.3 927.954 1031.17 927.829C1030.28 927.739 1029.7 927.185 1029.47 926.182C1029.34 925.609 1029.31 924.732 1029.36 923.551C1029.45 922.047 1029.47 920.919 1029.45 920.186C1029.43 919.308 1029.27 918.718 1028.99 918.378C1028.68 918.055 1028.11 917.859 1027.25 917.769C1027.12 917.751 1027 917.751 1026.87 917.751Z" fill="white"/>
<path d="M1048.16 914.547C1048.16 915.066 1048.11 915.674 1048 916.337L1047.62 921.581C1047.46 923.711 1047.07 925.251 1046.4 926.199C1045.51 927.506 1043.99 928.097 1041.86 928.007C1038.44 927.864 1036.56 926.504 1036.22 923.908C1036.17 923.461 1036.13 923.067 1036.13 922.727C1036.13 920.847 1036.86 919.612 1038.31 919.022C1038.85 918.807 1039.39 918.699 1039.94 918.699C1041.25 918.699 1042.65 919.272 1044.13 920.418C1043.97 917.751 1043.88 915.764 1043.88 914.475C1043.88 913.526 1043.93 912.918 1044.02 912.649C1044.24 912.041 1044.74 911.665 1045.53 911.504C1045.65 911.486 1045.8 911.468 1045.94 911.468C1046.53 911.468 1047.09 911.754 1047.59 912.345C1047.96 912.792 1048.16 913.526 1048.16 914.547V914.547ZM1041.38 924.767C1041.77 924.767 1042.18 924.571 1042.59 924.177C1042.93 923.855 1043.09 923.55 1043.09 923.264C1043.09 922.888 1042.82 922.548 1042.31 922.208C1041.89 921.939 1041.5 921.814 1041.12 921.814C1040.71 921.814 1040.35 922.011 1040.05 922.387C1039.82 922.673 1039.71 922.96 1039.71 923.246C1039.71 923.622 1039.93 923.998 1040.37 924.356C1040.71 924.624 1041.03 924.767 1041.38 924.767V924.767Z" fill="white"/>
<path d="M1069.53 918.896C1069.79 919.075 1069.91 919.415 1069.89 919.899C1069.87 920.31 1069.79 920.615 1069.59 920.847C1069.46 921.008 1069.19 921.188 1068.78 921.42C1068.6 921.528 1068.1 921.581 1067.26 921.581C1066.72 921.581 1066.06 921.563 1065.26 921.51C1065.26 922.19 1065.24 923.031 1065.2 924.052C1065.15 925.251 1065.13 926.092 1065.13 926.575C1065.13 927.059 1065.01 927.47 1064.74 927.811C1064.45 928.186 1064.08 928.365 1063.59 928.365C1063.4 928.365 1063.23 928.348 1063.11 928.312C1062.66 928.186 1062.36 927.954 1062.21 927.578C1062.16 927.417 1062.11 927.005 1062.07 926.361C1062.03 925.645 1062 924.141 1061.98 921.868C1061.1 922.083 1060.33 922.19 1059.71 922.19C1058.44 922.19 1057.61 921.671 1057.27 920.615C1057.18 920.346 1057.15 920.096 1057.15 919.845C1057.15 919.38 1057.34 919.004 1057.72 918.735C1058.31 918.324 1058.92 918.145 1059.56 918.198C1060.12 918.252 1060.85 918.234 1061.78 918.145C1061.77 916.05 1061.75 914.618 1061.73 913.848C1061.71 912.846 1061.8 912.148 1061.98 911.754C1062.27 911.128 1062.84 910.841 1063.72 910.931C1064.93 911.056 1065.49 911.951 1065.38 913.652C1065.33 914.439 1065.29 915.066 1065.27 915.513L1065.15 918.091C1065.44 918.145 1065.67 918.162 1065.85 918.162C1065.94 918.162 1066.03 918.162 1066.1 918.145C1066.38 918.109 1066.71 918.109 1067.05 918.145C1067.51 918.198 1067.83 918.234 1068.01 918.252C1068.39 918.252 1068.91 918.467 1069.53 918.896V918.896Z" fill="white"/>
<path d="M1082.78 921.583C1083.19 922.603 1083.44 923.642 1083.55 924.662C1083.6 925.11 1083.62 925.485 1083.62 925.826C1083.62 927.347 1083 928.099 1081.76 928.099C1081.13 928.099 1080.7 927.777 1080.47 927.132C1079.99 925.038 1079.68 923.857 1079.59 923.552C1079.25 922.46 1078.86 921.959 1078.4 922.013C1077.89 922.066 1077.52 922.192 1077.27 922.389C1076.87 922.675 1076.52 923.284 1076.21 924.232C1076.05 924.716 1075.87 925.414 1075.67 926.327C1075.39 927.616 1074.74 928.26 1073.72 928.26C1073.15 928.26 1072.67 928.153 1072.27 927.938C1071.79 927.669 1071.56 927.258 1071.58 926.738C1071.63 925.879 1071.63 925.181 1071.58 924.644C1071.54 924.197 1071.52 923.821 1071.52 923.552C1071.5 923.355 1071.43 922.693 1071.34 921.583L1071.06 918.021C1070.93 916.571 1070.88 915.372 1070.86 914.441C1070.84 913.224 1071.15 912.4 1071.77 911.971C1072.15 911.702 1072.54 911.577 1072.95 911.577C1073.19 911.577 1073.44 911.631 1073.71 911.738C1074.39 912.007 1074.73 912.454 1074.73 913.045L1074.74 914.137C1074.76 914.584 1074.76 915.05 1074.74 915.551C1074.73 916.661 1074.65 918.54 1074.55 921.207C1075.94 919.471 1077.36 918.612 1078.81 918.612C1079.02 918.612 1079.24 918.63 1079.47 918.665C1080.17 918.773 1080.67 918.916 1080.94 919.077C1081.64 919.417 1082.26 920.241 1082.78 921.583V921.583Z" fill="white"/>
<path d="M1094.4 920.652C1093.7 921.153 1092.88 921.404 1091.97 921.404C1091.02 921.404 1089.94 921.153 1088.78 920.634C1088.75 920.831 1088.73 921.028 1088.73 921.225C1088.73 921.762 1088.85 922.353 1089.12 923.015C1089.53 924.053 1090.12 924.608 1090.86 924.68C1091.73 924.769 1092.63 924.68 1093.51 924.411C1093.67 924.357 1093.83 924.34 1094.01 924.34C1094.6 924.34 1094.94 924.769 1094.99 925.61C1095.08 926.667 1094.37 927.436 1092.84 927.92C1092.25 928.116 1091.68 928.206 1091.11 928.206C1090.23 928.206 1089.35 927.973 1088.48 927.49C1087.04 926.702 1086.11 924.447 1085.7 920.706C1085.63 920.079 1085.59 919.435 1085.59 918.773C1085.59 916.07 1086.38 914.19 1087.94 913.098C1088.73 912.436 1089.75 912.096 1091 912.096C1091.66 912.096 1092.36 912.185 1093.11 912.347C1095.33 912.848 1096.46 914.119 1096.48 916.141C1096.5 918.146 1095.82 919.65 1094.4 920.652ZM1089.77 917.018C1089.78 917.412 1089.93 917.734 1090.23 918.003C1090.52 918.271 1090.86 918.433 1091.25 918.45C1091.84 918.486 1092.33 918.343 1092.68 918.021C1092.88 917.86 1092.97 917.627 1092.97 917.323C1092.97 917.036 1092.88 916.696 1092.72 916.285C1092.47 915.658 1092.09 915.354 1091.61 915.354C1091.43 915.354 1091.22 915.407 1090.96 915.515C1090.14 915.855 1089.75 916.356 1089.77 917.018Z" fill="white"/>
<path d="M1116.66 916.552C1116.66 917.787 1116.42 918.682 1115.94 919.273C1115.44 919.899 1114.85 920.364 1114.17 920.687C1113.65 920.937 1113.18 921.098 1112.79 921.17C1112.49 921.224 1112 921.242 1111.34 921.242C1110.36 921.242 1109.3 921.116 1108.21 920.884C1108.65 923.228 1108.91 924.875 1108.92 925.86C1108.94 926.862 1108.82 927.507 1108.53 927.775C1108.35 927.954 1108.22 928.079 1108.14 928.169C1108.12 928.187 1107.96 928.241 1107.65 928.312C1107.56 928.33 1107.46 928.348 1107.37 928.348C1106.95 928.348 1106.6 928.205 1106.27 927.9C1106.04 927.668 1105.9 927.453 1105.86 927.22C1105.75 926.54 1105.67 925.931 1105.61 925.376C1105.47 924.034 1105.4 922.96 1105.4 922.154V919.881C1105.4 919.165 1105.43 918.342 1105.52 917.429C1105.61 916.552 1105.81 915.71 1106.13 914.905C1106.54 913.938 1107.04 913.276 1107.65 912.9C1109.12 912.023 1110.53 911.575 1111.88 911.558C1112.83 911.54 1113.7 911.754 1114.53 912.166C1114.83 912.327 1115.06 912.47 1115.22 912.632C1116.17 913.562 1116.66 914.869 1116.66 916.552V916.552ZM1111.43 915.37C1110.98 915.352 1110.61 915.478 1110.27 915.746C1109.89 916.015 1109.71 916.373 1109.71 916.802C1109.71 917.178 1109.82 917.5 1110.05 917.805C1110.28 918.145 1110.59 918.306 1110.95 918.306C1111.39 918.306 1111.82 918.163 1112.2 917.894C1112.63 917.59 1112.84 917.232 1112.84 916.802C1112.84 915.889 1112.38 915.406 1111.43 915.37V915.37Z" fill="white"/>
<path d="M1124.11 912.413H1125.33C1125.81 912.413 1126.4 912.592 1127.08 912.932C1127.75 913.29 1128.21 913.684 1128.46 914.095C1128.82 914.668 1129.03 915.223 1129.12 915.742C1129.21 916.333 1129.16 917.801 1128.93 920.146C1128.86 920.879 1128.82 921.524 1128.82 922.115C1128.82 923.332 1128.96 924.173 1129.27 924.656C1129.61 925.211 1129.79 925.677 1129.79 926.07C1129.79 926.249 1129.75 926.393 1129.7 926.482C1129.41 926.948 1129 927.18 1128.44 927.18C1128.32 927.18 1128.17 927.162 1128.03 927.144C1127.53 927.055 1127.1 926.59 1126.73 925.73L1126.55 926.088C1126.13 926.679 1125.45 927.127 1124.51 927.449C1123.68 927.735 1122.86 927.86 1122.04 927.807C1121.28 927.771 1120.67 927.592 1120.19 927.252C1118.8 926.285 1118.1 924.979 1118.1 923.314C1118.1 922.204 1118.49 921.273 1119.26 920.521C1120.03 919.77 1120.98 919.358 1122.11 919.268C1122.27 919.251 1122.48 919.251 1122.75 919.251C1123.86 919.251 1124.79 919.465 1125.53 919.913C1125.72 920.074 1125.9 920.199 1126.03 920.289C1126.06 920.056 1126.08 919.913 1126.08 919.895C1126.15 919.465 1126.19 919.089 1126.19 918.767C1126.19 918.248 1126.1 917.836 1125.92 917.496C1125.62 916.941 1125.26 916.619 1124.85 916.53C1124.43 916.44 1123.9 916.476 1123.23 916.619C1123.13 916.637 1123 916.655 1122.84 916.655C1122.36 916.655 1121.89 916.476 1121.46 916.1C1121.03 915.724 1120.82 915.295 1120.82 914.811C1120.82 914.668 1120.85 914.489 1120.91 914.292C1121.12 913.594 1121.44 913.164 1121.86 913.003C1121.96 912.968 1122.05 912.932 1122.11 912.896C1122.39 912.771 1122.61 912.681 1122.73 912.628C1123.07 912.466 1123.54 912.395 1124.11 912.413V912.413ZM1123.32 924.692C1123.7 924.459 1123.9 924.137 1123.9 923.761C1123.9 923.618 1123.86 923.439 1123.79 923.242C1123.57 922.634 1123.18 922.329 1122.61 922.329C1121.62 922.329 1121.1 922.705 1121.03 923.475C1120.96 924.137 1121.14 924.603 1121.55 924.835C1121.75 924.961 1121.98 925.014 1122.21 925.014C1122.63 925.014 1122.98 924.907 1123.32 924.692Z" fill="white"/>
<path d="M1137.97 912.219C1139.22 912.219 1140.28 912.595 1141.12 913.347C1142.21 914.313 1142.73 915.656 1142.68 917.356C1142.62 918.878 1142.59 919.862 1142.57 920.328L1142.55 922.726C1142.53 924.301 1142.09 925.608 1141.17 926.664C1140.22 927.774 1138.97 928.329 1137.41 928.329C1137.11 928.329 1136.84 928.311 1136.57 928.275C1135.46 928.132 1134.66 927.774 1134.14 927.201C1133.62 926.628 1133.31 925.787 1133.24 924.677C1133.19 923.621 1133.69 923.013 1134.75 922.834C1134.96 922.798 1135.16 922.78 1135.34 922.78C1136.05 922.78 1136.47 923.084 1136.55 923.675C1136.68 924.445 1137 925.017 1137.54 925.375C1137.79 925.536 1138.04 925.626 1138.29 925.626C1138.58 925.626 1138.88 925.519 1139.2 925.286C1139.76 924.91 1140.06 924.248 1140.15 923.299C1140.24 922.332 1140.22 921.384 1140.06 920.471C1139.1 921.151 1138.09 921.491 1137.04 921.491C1136.54 921.491 1136.05 921.419 1135.59 921.294C1134.35 920.954 1133.49 920.363 1132.99 919.558C1132.53 918.788 1132.37 917.75 1132.49 916.461C1132.72 914.081 1134.23 912.702 1136.98 912.291C1137.31 912.237 1137.63 912.219 1137.97 912.219V912.219ZM1135.53 917.034C1135.5 918.019 1135.84 918.556 1136.55 918.609C1137.25 918.663 1137.83 918.448 1138.26 917.965C1138.47 917.732 1138.58 917.464 1138.58 917.159C1138.58 916.891 1138.49 916.604 1138.31 916.318C1137.93 915.692 1137.38 915.423 1136.66 915.495C1135.93 915.566 1135.55 916.085 1135.53 917.034Z" fill="white"/>
<path d="M1153.74 920.652C1153.04 921.153 1152.22 921.404 1151.3 921.404C1150.36 921.404 1149.28 921.153 1148.12 920.634C1148.08 920.831 1148.07 921.028 1148.07 921.225C1148.07 921.762 1148.19 922.353 1148.46 923.015C1148.87 924.053 1149.46 924.608 1150.2 924.68C1151.07 924.769 1151.97 924.68 1152.84 924.411C1153.01 924.357 1153.17 924.34 1153.35 924.34C1153.94 924.34 1154.28 924.769 1154.33 925.61C1154.42 926.667 1153.7 927.436 1152.18 927.92C1151.59 928.116 1151.02 928.206 1150.45 928.206C1149.57 928.206 1148.69 927.973 1147.81 927.49C1146.38 926.702 1145.45 924.447 1145.04 920.706C1144.97 920.079 1144.93 919.435 1144.93 918.773C1144.93 916.07 1145.72 914.19 1147.28 913.098C1148.07 912.436 1149.09 912.096 1150.34 912.096C1151 912.096 1151.7 912.185 1152.45 912.347C1154.67 912.848 1155.8 914.119 1155.82 916.141C1155.83 918.146 1155.15 919.65 1153.74 920.652ZM1149.1 917.018C1149.12 917.412 1149.26 917.734 1149.57 918.003C1149.86 918.271 1150.2 918.433 1150.59 918.45C1151.18 918.486 1151.66 918.343 1152.02 918.021C1152.22 917.86 1152.31 917.627 1152.31 917.323C1152.31 917.036 1152.22 916.696 1152.06 916.285C1151.81 915.658 1151.43 915.354 1150.95 915.354C1150.77 915.354 1150.55 915.407 1150.3 915.515C1149.48 915.855 1149.09 916.356 1149.1 917.018Z" fill="white"/>
<path d="M774.226 853.409V862.051C775.687 862.233 776.843 862.416 777.756 862.477C780.252 862.659 781.773 862.659 782.382 862.477C782.625 857.608 782.564 850.913 782.138 842.393C781.712 834.177 783.477 829.856 787.311 829.43C791.206 828.943 793.215 831.56 793.337 837.22C793.397 839.411 793.215 843.61 792.789 849.757C792.424 855.113 792.424 859.251 792.728 862.233C794.615 862.294 797.11 862.294 800.092 862.112C802.587 861.99 805.082 862.051 807.699 862.355C809.404 862.538 810.256 863.694 810.256 865.763C810.256 866.554 810.134 867.406 809.951 868.319C809.404 870.936 807.943 872.519 805.569 873.127C804.352 873.432 802.1 873.492 798.814 873.31C795.953 873.127 794.067 873.31 793.215 873.858C792.302 874.466 791.876 876.292 791.876 879.274C791.876 880.43 791.876 881.404 791.937 882.074C792.058 884.082 791.876 885.664 791.45 886.76C790.78 888.342 789.563 889.073 787.737 889.012C784.816 888.89 783.295 887.551 783.173 885.056L782.625 874.162C779.704 874.466 776.052 874.405 771.731 873.979C768.81 873.675 766.68 873.066 765.402 872.153C763.759 870.997 762.846 869.171 762.602 866.554L762.663 858.643C762.724 852.983 762.48 846.897 762.054 840.263C761.994 839.046 761.933 837.95 761.933 836.916C761.933 833.081 762.48 830.647 763.637 829.734C765.037 828.578 766.68 828.03 768.445 828.152C771.305 828.334 773.131 830.099 773.922 833.386C774.348 834.907 774.531 837.707 774.531 841.723C774.531 846.166 774.409 850.061 774.226 853.409Z" fill="white"/>
<path d="M833.432 828.155C838.422 827.851 842.256 828.825 844.934 831.077C847.125 832.903 849.255 836.372 851.264 841.545C852.968 845.866 853.82 851.221 853.82 857.551C853.82 860.594 853.637 863.759 853.272 867.106C852.116 877.817 849.316 884.329 844.995 886.581C841.891 888.224 838.909 889.015 836.17 889.015C835.075 889.015 834.04 888.894 833.067 888.65C828.502 887.494 825.033 884.816 822.66 880.617C820.834 877.391 819.556 873.009 818.886 867.532C818.339 863.089 818.034 858.829 818.034 854.751C818.034 845.683 819.799 838.806 823.329 834.12C826.189 830.346 829.537 828.338 833.432 828.155V828.155ZM835.744 878.121C838.605 878.304 840.674 876.539 841.952 872.705C842.865 870.088 843.352 867.045 843.352 863.698C843.352 860.411 842.987 856.516 842.256 851.952C841.283 846.17 840.005 842.64 838.361 841.423C837.327 840.632 835.501 840.388 832.823 840.693C829.354 842.336 827.711 847.631 827.894 856.455C828.198 870.575 830.815 877.817 835.744 878.121V878.121Z" fill="white"/>
<path d="M874.767 853.409V862.051C876.227 862.233 877.384 862.416 878.296 862.477C880.792 862.659 882.313 862.659 882.922 862.477C883.165 857.608 883.104 850.913 882.678 842.393C882.252 834.177 884.017 829.856 887.851 829.43C891.746 828.943 893.755 831.56 893.877 837.22C893.937 839.411 893.755 843.61 893.329 849.757C892.964 855.113 892.964 859.251 893.268 862.233C895.155 862.294 897.65 862.294 900.632 862.112C903.127 861.99 905.623 862.051 908.24 862.355C909.944 862.538 910.796 863.694 910.796 865.763C910.796 866.554 910.674 867.406 910.491 868.319C909.944 870.936 908.483 872.519 906.109 873.127C904.892 873.432 902.64 873.492 899.354 873.31C896.494 873.127 894.607 873.31 893.755 873.858C892.842 874.466 892.416 876.292 892.416 879.274C892.416 880.43 892.416 881.404 892.477 882.074C892.599 884.082 892.416 885.664 891.99 886.76C891.32 888.342 890.103 889.073 888.277 889.012C885.356 888.89 883.835 887.551 883.713 885.056L883.165 874.162C880.244 874.466 876.592 874.405 872.271 873.979C869.35 873.675 867.22 873.066 865.942 872.153C864.299 870.997 863.386 869.171 863.142 866.554L863.203 858.643C863.264 852.983 863.021 846.897 862.595 840.263C862.534 839.046 862.473 837.95 862.473 836.915C862.473 833.081 863.021 830.647 864.177 829.734C865.577 828.578 867.22 828.03 868.985 828.152C871.845 828.334 873.671 830.099 874.462 833.386C874.888 834.907 875.071 837.707 875.071 841.723C875.071 846.166 874.949 850.061 874.767 853.409Z" fill="white"/>
<path d="M965.46 847.098C964.785 847.306 963.331 847.41 961.151 847.462C959.179 847.514 957.362 847.514 955.701 847.462C954.091 847.41 952.43 847.721 950.717 848.344C949.212 848.915 948.174 849.798 947.707 851.095C947.499 851.562 947.239 852.912 946.98 855.196C946.98 855.975 947.084 857.428 947.239 859.609C947.655 861.841 948.797 863.087 950.614 863.294C951.756 863.45 953.365 863.45 955.389 863.346C957.466 863.294 959.127 863.294 960.425 863.346L964.11 863.554C965.252 863.606 966.29 863.969 967.173 864.592C968.211 865.319 968.73 866.201 968.73 867.291C968.73 867.758 968.678 868.537 968.522 869.575C968.367 869.991 968.055 870.458 967.536 870.977C966.238 871.807 964.37 872.119 961.982 871.859C959.334 871.6 957.414 871.392 956.116 871.34C954.247 871.236 953.105 871.133 952.69 871.081C952.171 871.029 951.704 870.977 951.288 870.977C950.873 870.977 950.51 871.029 950.198 871.081C949.212 871.081 948.537 871.859 948.174 873.417C947.81 874.922 948.018 875.96 948.693 876.531C949.575 877.31 950.458 877.725 951.288 877.881C954.455 878.4 957.258 878.556 959.698 878.348C964.266 877.985 966.913 878.867 967.64 880.995C967.796 881.463 967.848 881.93 967.848 882.449C967.848 885.615 965.823 887.225 961.826 887.225C961.359 887.225 960.009 887.121 957.881 886.913C951.911 886.446 948.329 886.083 947.084 885.875C941.581 884.889 938.778 881.566 938.674 875.804C938.57 870.094 938.363 865.111 938.051 860.906C937.896 859.089 937.844 857.532 937.844 856.182C937.844 852.497 938.207 848.811 938.934 845.022C939.92 839.935 943.917 836.872 950.925 835.782C953.157 835.419 954.87 835.263 955.96 835.315C959.542 835.47 962.709 835.99 965.564 836.924C966.55 837.391 967.38 838.222 968.055 839.519C968.73 840.817 968.938 842.063 968.782 843.153C968.678 843.828 968.626 844.243 968.574 844.347C967.848 845.801 966.809 846.735 965.46 847.098V847.098Z" fill="white"/>
<path d="M995.251 835.315C998.937 835.056 1003.14 835.263 1007.97 836.042C1013 836.821 1015.96 839.364 1016.95 843.569C1017.42 845.542 1017.62 847.203 1017.62 848.552C1017.62 850.317 1017.26 851.823 1016.59 853.017C1013.73 857.948 1008.8 860.492 1001.9 860.544C1000.86 860.544 999.352 860.44 997.327 860.284C995.303 860.128 993.849 860.076 992.863 860.076C992.5 860.076 992.292 860.18 992.292 860.44C992.292 860.803 992.656 861.426 993.434 862.257C995.978 865.008 998.106 867.344 999.767 869.368C1002.16 872.223 1003.97 874.3 1005.17 875.701C1007.66 878.764 1008.9 881.048 1008.9 882.605C1008.9 884.266 1008.02 885.512 1006.2 886.395C1005.53 886.706 1004.91 886.862 1004.23 886.862C1002.1 886.862 999.923 885.668 997.691 883.332C996.082 881.567 994.628 879.439 993.382 876.999L987.101 864.385C987.828 871.497 988.191 875.805 988.139 877.31C988.087 879.958 988.087 881.463 988.139 881.723C988.139 882.605 987.932 883.54 987.516 884.526C987.101 885.512 986.53 886.239 985.752 886.602C985.181 886.862 984.298 887.07 983 887.225C980.561 887.485 979.367 885.512 979.367 881.204C979.211 880.425 979.107 879.439 979.055 878.349C978.536 870.199 978.277 863.295 978.328 857.637C978.38 853.743 978.432 851.096 978.484 849.591C978.796 843.829 980.093 840.195 982.429 838.586C984.35 836.873 988.658 835.782 995.251 835.315V835.315ZM995.251 843.517C993.901 843.517 992.656 843.88 991.565 844.607C989.956 845.645 989.126 847.099 989.074 849.02C989.022 851.511 990.372 852.809 993.019 852.965C998.262 853.224 1001.12 852.082 1001.69 849.539C1002.21 847.099 1001.38 845.438 999.248 844.451C997.898 843.829 996.549 843.517 995.251 843.517Z" fill="white"/>
<path d="M1042.49 835.315C1046.17 835.056 1050.38 835.263 1055.21 836.042C1060.24 836.821 1063.2 839.364 1064.19 843.569C1064.65 845.542 1064.86 847.203 1064.86 848.552C1064.86 850.317 1064.5 851.823 1063.82 853.017C1060.97 857.948 1056.04 860.492 1049.13 860.544C1048.1 860.544 1046.59 860.44 1044.57 860.284C1042.54 860.128 1041.09 860.076 1040.1 860.076C1039.74 860.076 1039.53 860.18 1039.53 860.44C1039.53 860.803 1039.89 861.426 1040.67 862.257C1043.22 865.008 1045.34 867.344 1047.01 869.368C1049.39 872.223 1051.21 874.3 1052.4 875.701C1054.9 878.764 1056.14 881.048 1056.14 882.605C1056.14 884.266 1055.26 885.512 1053.44 886.395C1052.77 886.706 1052.14 886.862 1051.47 886.862C1049.34 886.862 1047.16 885.668 1044.93 883.332C1043.32 881.567 1041.87 879.439 1040.62 876.999L1034.34 864.385C1035.07 871.497 1035.43 875.805 1035.38 877.31C1035.33 879.958 1035.33 881.463 1035.38 881.723C1035.38 882.605 1035.17 883.54 1034.75 884.526C1034.34 885.512 1033.77 886.239 1032.99 886.602C1032.42 886.862 1031.54 887.07 1030.24 887.225C1027.8 887.485 1026.6 885.512 1026.6 881.204C1026.45 880.425 1026.35 879.439 1026.29 878.349C1025.77 870.199 1025.51 863.295 1025.57 857.637C1025.62 853.743 1025.67 851.096 1025.72 849.591C1026.03 843.829 1027.33 840.195 1029.67 838.586C1031.59 836.873 1035.9 835.782 1042.49 835.315V835.315ZM1042.49 843.517C1041.14 843.517 1039.89 843.88 1038.8 844.607C1037.19 845.645 1036.36 847.099 1036.31 849.02C1036.26 851.511 1037.61 852.809 1040.26 852.965C1045.5 853.224 1048.36 852.082 1048.93 849.539C1049.45 847.099 1048.61 845.438 1046.49 844.451C1045.14 843.829 1043.79 843.517 1042.49 843.517Z" fill="white"/>
<path d="M1089.1 835.155C1090.19 835.155 1091.39 835.207 1092.58 835.311C1094.87 835.466 1096.58 835.726 1097.67 836.037C1099.02 836.401 1100.42 837.179 1101.82 838.373C1103.22 839.567 1104.21 840.761 1104.73 842.059C1105.72 844.499 1106.34 846.835 1106.49 849.067C1106.55 850.157 1106.75 851.922 1107.01 854.361C1107.27 856.49 1107.38 858.307 1107.38 859.812C1107.43 863.498 1106.91 869.208 1105.82 876.942C1105.72 877.669 1105.25 879.019 1104.42 880.991C1103.43 883.327 1101.35 885.04 1098.14 886.13C1095.9 886.909 1093.62 887.272 1091.28 887.272C1090.77 887.272 1090.25 887.272 1089.73 887.221C1087.24 887.065 1085.63 886.909 1084.95 886.753C1083.71 886.494 1082.15 886.027 1080.23 885.3C1078.93 884.833 1077.53 883.846 1076.13 882.341C1074.57 880.68 1073.79 879.226 1073.79 878.032L1072.13 871.544C1071.66 869.831 1071.4 867.235 1071.35 863.809C1071.3 861.162 1071.3 858.566 1071.3 855.919C1071.25 852.7 1071.92 848.755 1073.22 844.135C1074.93 838.166 1080.23 835.155 1089.1 835.155V835.155ZM1086.09 846.16C1083.81 846.731 1082.36 849.534 1081.73 854.673C1081.42 857.165 1081.27 859.552 1081.27 861.837C1081.27 864.38 1081.47 866.976 1081.89 869.675C1082.67 874.554 1084.43 877.254 1087.18 877.773C1087.96 877.929 1088.69 877.981 1089.47 877.981C1091.18 877.981 1092.63 877.565 1093.78 876.735C1095.39 875.541 1096.53 871.907 1097.1 865.834C1097.31 863.705 1097.41 861.733 1097.41 859.916C1097.41 857.061 1097.1 854.465 1096.48 852.129C1095.59 848.703 1094.14 846.731 1092.22 846.16C1090.3 845.589 1088.22 845.589 1086.09 846.16V846.16Z" fill="white"/>
<path d="M1133.76 835.315C1137.44 835.056 1141.65 835.263 1146.47 836.042C1151.51 836.821 1154.47 839.364 1155.45 843.569C1155.92 845.542 1156.13 847.203 1156.13 848.552C1156.13 850.317 1155.77 851.823 1155.09 853.017C1152.24 857.948 1147.3 860.492 1140.4 860.544C1139.36 860.544 1137.86 860.44 1135.83 860.284C1133.81 860.128 1132.35 860.076 1131.37 860.076C1131.01 860.076 1130.8 860.18 1130.8 860.44C1130.8 860.803 1131.16 861.426 1131.94 862.257C1134.48 865.008 1136.61 867.344 1138.27 869.368C1140.66 872.223 1142.48 874.3 1143.67 875.701C1146.16 878.764 1147.41 881.048 1147.41 882.605C1147.41 884.266 1146.53 885.512 1144.71 886.395C1144.03 886.706 1143.41 886.862 1142.74 886.862C1140.61 886.862 1138.43 885.668 1136.2 883.332C1134.59 881.567 1133.13 879.439 1131.89 876.999L1125.61 864.385C1126.33 871.497 1126.7 875.805 1126.64 877.31C1126.59 879.958 1126.59 881.463 1126.64 881.723C1126.64 882.605 1126.44 883.54 1126.02 884.526C1125.61 885.512 1125.04 886.239 1124.26 886.602C1123.69 886.862 1122.8 887.07 1121.51 887.225C1119.07 887.485 1117.87 885.512 1117.87 881.204C1117.72 880.425 1117.61 879.439 1117.56 878.349C1117.04 870.199 1116.78 863.295 1116.83 857.637C1116.89 853.743 1116.94 851.096 1116.99 849.591C1117.3 843.829 1118.6 840.195 1120.93 838.586C1122.86 836.873 1127.16 835.782 1133.76 835.315V835.315ZM1133.76 843.517C1132.41 843.517 1131.16 843.88 1130.07 844.607C1128.46 845.645 1127.63 847.099 1127.58 849.02C1127.53 851.511 1128.88 852.809 1131.52 852.965C1136.77 853.224 1139.62 852.082 1140.19 849.539C1140.71 847.099 1139.88 845.438 1137.75 844.451C1136.4 843.829 1135.05 843.517 1133.76 843.517Z" fill="white"/>
<path d="M1246.29 460.895C1254.64 609.464 1107.48 750.432 962.162 750.432C816.837 750.432 671.034 603.403 671.034 454.602C671.034 305.799 802.29 201.467 947.613 201.467C1092.94 201.467 1236.49 286.68 1246.29 460.895V460.895Z" fill="#53237D"/>
<path d="M783.382 538.039C754.978 452.45 818.75 346.695 903.763 323.692C988.773 300.69 1097.34 363.62 1120.89 450.667C1144.44 537.713 1094.2 616.81 1009.19 639.813C924.176 662.816 816.688 638.402 783.382 538.039Z" fill="#995AD1"/>
<path d="M983.467 503.92C989.394 497.563 995.935 491.719 1003.26 487.006C1009.68 482.871 1025.43 474.49 1029.43 475.43C1034.3 476.576 1025.71 481.831 1024.61 482.567C1021.07 484.937 1017.45 487.181 1013.75 489.306C1005.21 494.223 996.318 498.335 987.169 501.988C985.624 502.606 986.274 505.131 987.869 504.525C995.856 501.487 1003.87 498.526 1012.01 495.897C1016.3 494.508 1020.63 493.203 1025 492.057C1026.81 491.583 1028.98 490.695 1030.85 490.616C1031.83 490.402 1032.81 490.187 1033.79 489.972C1043.64 488.407 1039.01 496.348 1035.93 497.68C1029.83 503.085 1016.39 503.68 1008.98 504.075C1000.35 504.535 991.694 504.21 983.059 504.571C981.516 504.637 981.5 507.016 983.059 506.986C995.553 506.739 1008.29 507.586 1020.66 505.396C1026.44 504.374 1042.61 501.113 1043.58 492.938C1044.55 484.72 1032.51 487.62 1028.71 488.524C1014.52 491.9 1000.86 497.041 987.169 501.988C987.403 502.833 987.636 503.68 987.869 504.525C994.057 502.151 1042.23 481.323 1035.06 473.219C1031.19 468.848 1015.44 477.451 1011.16 479.583C999.928 485.177 990.119 492.915 982.101 502.554C981.319 503.494 982.606 504.841 983.467 503.92V503.92Z" fill="#53237D"/>
<path d="M826.679 610.667C827.783 612.579 828.889 614.492 829.996 616.404C830.549 617.36 831.113 618.332 831.916 619.091C832.586 619.719 833.397 620.179 834.216 620.593C839.024 623.007 844.525 624.024 849.879 623.483C848.159 621.294 846.122 619.356 843.85 617.745C843.039 617.17 842.194 616.631 841.464 615.955C840.684 615.23 837.943 609.308 837.195 608.549C834.712 606.034 830.755 603.34 827.311 604.139" fill="#E2EBE9"/>
<path d="M850.169 659.431C853.472 665.844 849.974 677.144 845.502 679.445C841.033 681.745 834.734 678.412 831.433 672C828.132 665.586 829.079 658.521 833.551 656.219C838.02 653.919 846.87 653.017 850.169 659.431V659.431Z" fill="#A28170"/>
<path d="M887.266 691.35C887.266 691.35 847.41 717.434 816.088 722.913C816.088 722.913 797.446 697.499 789.915 698.48C782.386 699.463 792.131 750.403 802.853 751.093C813.577 751.784 877.65 767.094 924.972 740.733L887.266 691.35Z" fill="#D7DFDD"/>
<path d="M869.246 526.889C869.246 526.889 903.486 515.352 930.16 520.021L883.096 553.694L869.246 526.889V526.889Z" fill="#A28170"/>
<path d="M788.119 485.488C788.119 485.488 747.672 468.82 691.208 512.222C641.213 550.652 691.894 543.504 710.386 536.512C722.93 531.767 776.133 495.484 778.53 492.324C780.926 489.165 788.119 485.488 788.119 485.488Z" fill="#B0917C"/>
<path d="M903.487 568.131C903.487 568.131 893.456 541.616 872.959 525.79C872.959 525.79 865.534 469.031 837.712 464.248C809.89 459.464 768.895 487.638 751.552 518.473C734.208 549.307 703.725 652.442 734.733 658.821C765.743 665.201 762.725 544.737 762.725 544.737C762.725 544.737 761.655 608.78 817.961 601.405C817.961 601.405 783.987 655.567 801.405 664.904C818.825 674.239 835.118 606.723 835.118 606.723L845.629 605.127C845.629 605.127 835.642 718.035 864.023 734.946C864.023 734.946 875.06 746.007 872.432 669.986L903.487 626.392V568.131V568.131Z" fill="#B0917C"/>
<path d="M785.709 596.322C785.709 596.322 820.902 613.839 858.025 557.522C858.025 557.522 854.772 589.078 817.963 601.403C817.963 601.403 803.575 605.435 785.709 596.322Z" fill="#A28170"/>
<path d="M762.736 491.882C762.736 491.882 707.726 497.783 687.875 527.499C675.257 546.386 762.736 491.882 762.736 491.882Z" fill="#987466"/>
<path d="M747.168 559.885C747.168 559.885 721.934 634.746 737.915 641.896C753.898 649.045 747.168 559.885 747.168 559.885V559.885Z" fill="#987466"/>
<path d="M1114.78 615.632C1113.84 618.134 1107.15 642.423 1110.2 644.322C1114.22 646.681 1116.45 631.013 1117.38 628.328C1118.05 631.337 1118.88 633.251 1121.32 637.439C1122.8 639.995 1127.66 649.545 1130.13 648.487C1132.76 647.415 1129.67 640.663 1127.51 635.349C1126.83 633.689 1125.34 630.109 1124.8 628.504C1127.62 633.809 1135.49 646.644 1138.48 643.86C1141.37 641.18 1131.59 627.528 1128.58 623.891C1132.86 628.343 1142.88 642.482 1146.09 638.85C1147.8 636.895 1136.54 624.943 1134.3 621.933C1136.75 623.234 1146.6 632.084 1149.01 628.742C1152.3 623.887 1134.84 615.127 1131.55 614.014C1120.9 610.416 1114.48 607.527 1114.78 615.632V615.632Z" fill="#F3CAC0"/>
<path d="M978.759 502.773C978.759 502.773 1054.6 518.427 1125.07 610.85C1125.07 610.85 1126.82 621.899 1112.39 621.899C1112.39 621.899 1071.55 580.208 1027.63 577.475L978.759 502.773V502.773Z" fill="#E2EBE9"/>
<path d="M947.611 507.536C947.611 507.536 934.22 507.271 887.846 541.088C887.846 541.088 891.605 545.91 895.345 552.075C900.892 561.22 903.407 567.981 903.407 567.981C903.407 567.981 898.441 596.88 894.867 625.474C894.867 625.474 870.867 645.388 868.314 666.835C865.76 688.281 856.455 765.037 984.646 764.875C1001.43 764.856 1033.01 757.499 1046.01 734.748C1064.4 702.578 1078.33 551.133 971.461 502.773L944.649 507.989" fill="#E2EBE9"/>
<path d="M939.459 505.761C939.459 505.761 931.685 506.422 935.603 514.77C935.603 514.77 925.504 513.644 927.963 522.976C927.963 522.976 914.841 520.003 920.913 533.99C920.913 533.99 909.636 533.974 916.806 544.733C916.806 544.733 905.291 549.407 914.852 557.711C914.852 557.711 904.199 565.807 916.667 572.673C916.667 572.673 908.134 584.804 923.356 587.11C923.356 587.11 918.956 601.097 932.311 596.652C932.311 596.652 932.852 610.444 945.163 603.579C945.163 603.579 950.174 614.568 957.903 606.179C957.903 606.179 966.742 616.609 973.057 605.16C973.057 605.16 987.279 612.648 988.478 600.923C988.478 600.923 1000.47 605.785 998.94 595.345C998.94 595.345 1013.92 599.636 1009.53 584.326C1009.53 584.326 1022.36 583.127 1014.5 572.101C1014.5 572.101 1027.85 564.865 1015.31 557.711C1015.31 557.711 1026 544.467 1011.28 540.962C1011.28 540.962 1020.88 528.924 1004.95 528.36C1004.95 528.36 1011.84 515.517 995.713 516.181C995.713 516.181 999.515 507.09 988.478 509.177C988.478 509.177 990.966 501.388 982.807 499.885L980.706 505.747L988.478 514.056L997.193 539.646L988.478 570.549L951.675 576.676L930.17 545.83V528.36L944.65 507.986L939.459 505.761V505.761Z" fill="#C6A3E5"/>
<path d="M949.541 506.059C949.541 506.059 920.136 522.119 917.534 555.207C915.207 584.765 936.03 614.898 983.844 599.608C1031.66 584.32 1016.9 534.629 981.859 505.327L949.541 506.059Z" fill="#53237D"/>
<path d="M985.436 522.978C985.436 534.069 980.105 545.806 964.992 545.923C945.716 546.07 941.831 532.034 941.831 520.941C941.831 509.849 949.407 502.773 962.268 502.773C975.127 502.773 985.436 511.886 985.436 522.978V522.978Z" fill="#E2EBE9"/>
<path d="M833.973 406.44C830.997 405.636 828.02 404.834 825.041 404.031C818.125 402.167 811.119 400.264 804.922 396.672C801.676 394.787 798.592 392.338 796.94 388.968C795.288 385.599 795.395 381.165 797.985 378.448C801.295 374.975 806.959 375.532 811.539 376.955C821.442 380.034 830.431 385.998 837.117 393.926" fill="#EABBB3"/>
<path d="M802.949 386.269C806.638 387.52 810.41 388.458 814.119 389.657C817.794 390.846 821.418 392.494 825.181 393.319C826.539 393.618 827.365 391.809 826.138 391.053C819.675 387.076 810.716 384.994 803.218 384.28C802.027 384.165 801.925 385.92 802.949 386.269Z" fill="#C07C7A"/>
<path d="M969.663 535.675C969.663 535.675 949.842 544.73 942.95 516.379C933.761 478.579 870.393 474.308 843.407 442.595C822.109 417.565 795.295 351.743 871.612 306.12C947.928 260.496 1046.64 285.494 1079.82 328.574C1113 371.653 1093.31 424.888 1053.5 449.819C1021.06 470.139 985.579 482.65 981.938 510.14C978.82 533.674 969.663 535.675 969.663 535.675V535.675Z" fill="#F3CAC0"/>
<path d="M941.637 327.387C941.938 332.772 942.051 338.319 941.682 343.705C941.471 346.784 941.333 351.089 937.622 352.444C936.296 352.929 933.876 352.313 932.478 352.306C927.06 352.284 920.811 352.114 919.13 358.517C918.115 362.38 920.637 366.008 923.787 368.072C929.988 372.132 938.279 369.23 943.08 364.408C943.979 363.506 943.075 361.6 941.748 362.124C937.042 363.984 925.046 370.098 922.935 361.274C921.242 354.201 934.007 356.466 937.832 355.564C948.488 353.049 944.288 334.474 942.98 327.206C942.844 326.451 941.596 326.621 941.637 327.387V327.387Z" fill="#C07C7A"/>
<path d="M1059.49 385.187C1059.49 393.335 1046.84 399.53 1033.69 399.53C1020.54 399.53 1009.88 392.923 1009.88 384.775C1009.88 376.627 1022.81 370.843 1035.96 370.843C1049.11 370.843 1059.49 377.038 1059.49 385.187V385.187Z" fill="#DF9490"/>
<path d="M876.35 379.416C876.35 386.302 865.658 391.534 854.549 391.534C843.441 391.534 836.553 386.302 836.553 379.416C836.553 372.534 845.358 367.3 856.466 367.3C867.575 367.3 876.35 372.534 876.35 379.416Z" fill="#DF9490"/>
<path d="M918.248 424.083C914.259 425.05 910.421 426.616 906.379 427.33C902.337 428.043 897.889 427.796 894.545 425.417C890.863 422.794 889.231 418.126 888.613 413.649C888.169 410.427 888.146 407.103 889.012 403.969C891.023 396.703 897.45 391.537 904.072 387.93C929.987 373.815 964.495 377.547 986.793 396.879C988.467 398.329 990.085 399.868 991.381 401.665C996.819 409.21 994.927 421.015 987.405 426.483C984.659 428.481 981.394 429.652 978.104 430.475C968.402 432.901 956.363 432.895 947.094 428.674C937.423 424.271 929.311 421.403 918.248 424.083V424.083Z" fill="#73383C"/>
<path d="M906.949 464.484C924.657 477.249 948.342 485.067 969.985 477.544C970.846 477.247 970.748 475.897 969.763 475.904C957.77 475.989 946.704 477.575 934.779 474.766C925.317 472.537 915.931 468.352 907.588 463.391C906.873 462.966 906.301 464.017 906.949 464.484Z" fill="#C07C7A"/>
<path d="M1085.29 393.319C1096.49 385.128 1110.08 380.256 1123.93 379.468C1126.74 379.307 1129.64 379.325 1132.28 380.324C1134.91 381.321 1137.26 383.481 1137.78 386.252C1138.72 391.275 1133.74 395.279 1129.22 397.67C1113.26 406.117 1095.24 410.657 1077.18 410.777" fill="#F3CAC0"/>
<path d="M1088.22 400.273C1101.79 394.758 1113.29 391.746 1127.96 390.523C1129.45 390.398 1129.46 388.313 1127.96 388.195C1114.45 387.133 1098.77 391.49 1087.99 399.719C1087.74 399.905 1087.87 400.415 1088.22 400.273V400.273Z" fill="#C07C7A"/>
<path d="M973.434 416.729C958.418 407.165 938.746 405.319 922.228 411.966C914.765 414.966 907.542 420.278 904.644 427.569C905.224 427.51 905.801 427.435 906.37 427.335C910.412 426.62 914.25 425.054 918.239 424.087C929.302 421.408 937.414 424.275 947.085 428.679C956.354 432.9 968.393 432.905 978.095 430.48C980.344 429.918 982.572 429.167 984.64 428.126C982.218 423.445 977.959 419.611 973.434 416.729V416.729Z" fill="#925A5D"/>
<path d="M973.434 416.729C958.418 407.165 938.746 405.319 922.228 411.966C914.765 414.966 907.542 420.278 904.644 427.569C905.224 427.51 905.801 427.435 906.37 427.335C910.412 426.62 914.25 425.054 918.239 424.088C920.268 423.597 922.195 423.295 924.053 423.153C924.102 421.413 924.483 419.743 925.376 419.011C927.193 417.524 930.576 417.942 932.898 418.29C933.19 418.333 935.858 418.134 936.27 424.488C938.141 425.022 940.004 425.681 941.896 426.44C941.939 424.913 941.98 423.386 942.021 421.859C942.039 421.2 942.08 420.479 942.523 419.996C942.823 419.666 943.264 419.505 943.691 419.387C945.464 418.891 947.368 418.886 949.144 419.371C949.684 419.519 950.218 419.715 950.683 420.03C951.931 420.873 952.493 422.419 952.888 423.885C953.438 425.931 953.352 428.172 953.198 430.775C961.275 432.787 970.416 432.4 978.095 430.48C980.344 429.918 982.572 429.168 984.64 428.126C982.218 423.445 977.959 419.611 973.434 416.729V416.729Z" fill="#925A5D"/>
<path d="M932.909 418.284C930.587 417.937 927.204 417.518 925.387 419.005C924.494 419.738 924.112 421.408 924.064 423.147C928.408 422.813 932.363 423.364 936.281 424.483C935.869 418.128 933.2 418.327 932.909 418.284Z" fill="white"/>
<path d="M952.892 423.884C952.496 422.418 951.934 420.872 950.687 420.029C950.221 419.714 949.688 419.519 949.147 419.37C947.372 418.885 945.467 418.89 943.695 419.386C943.267 419.504 942.827 419.665 942.526 419.995C942.084 420.478 942.043 421.199 942.025 421.858C941.984 423.385 941.943 424.912 941.9 426.439C943.597 427.117 945.317 427.873 947.089 428.678C949.02 429.559 951.077 430.244 953.202 430.774C953.356 428.172 953.442 425.93 952.892 423.884Z" fill="white"/>
<path d="M992.901 301.732C993.114 300.685 994.308 300.155 995.371 300.037C998.523 299.688 1001.5 301.455 1004.04 303.36C1028.23 321.528 990.755 312.225 992.901 301.732V301.732Z" fill="#987963"/>
<path d="M885.616 313.33C885.117 314.066 884.652 314.877 884.612 315.765C884.575 316.654 885.099 317.626 885.967 317.81C886.366 317.896 886.778 317.812 887.174 317.721C892.282 316.525 897.02 313.79 900.613 309.967C905.204 305.08 901.87 302.837 896.514 304.892C892.22 306.541 888.199 309.517 885.616 313.33V313.33Z" fill="#987963"/>
<path d="M837.261 603.782C839.353 602.119 860.432 588.32 863.171 590.643C866.649 593.751 852.413 600.66 850.142 602.368C853.212 602.087 855.288 602.296 860.023 603.333C862.91 603.966 873.487 605.663 873.235 608.337C873.018 611.166 865.647 610.297 859.926 609.864C858.139 609.725 854.275 609.401 852.58 609.377C858.494 610.439 873.122 614.003 871.387 617.704C869.721 621.279 853.731 616.144 849.345 614.393C854.892 617.098 871.423 622.321 868.947 626.486C867.609 628.706 852.786 621.646 849.232 620.436C851.225 622.375 862.661 629.044 860.216 632.352C856.602 636.974 843.286 622.72 840.852 620.239C838.407 617.749 831.057 608.454 837.261 603.782V603.782Z" fill="#F3CAC0"/>
<path d="M815.677 501.419L815.729 501.345C816.407 500.377 816.407 498.678 815.729 497.71L815.677 497.637C814.712 496.262 813.157 495.444 811.445 495.915C809.919 496.335 808.623 497.896 808.696 499.527C808.762 501.039 809.591 502.357 810.998 502.953C812.811 503.717 814.589 502.969 815.677 501.419Z" fill="#73564A"/>
<path d="M803.475 562.032C805.07 562.159 806.239 561.613 807.433 560.589C809.851 558.514 808.641 553.853 805.498 553.252C803.96 552.96 802.602 553.087 801.295 553.982C799.761 555.031 798.696 556.962 799.31 558.86C799.931 560.779 801.497 561.876 803.475 562.032V562.032Z" fill="#73564A"/>
<path d="M850.025 539.323C848.742 533.84 848.364 528.556 847.918 522.98C847.698 520.229 843.724 520.172 843.597 522.98C843.334 528.839 845.165 535.079 847.773 540.272C848.419 541.559 850.333 540.639 850.025 539.323V539.323Z" fill="#73564A"/>
<path d="M829.653 489.86C830.55 484.748 834.398 481.148 838.247 481.823C842.097 482.5 845.965 485.518 845.068 490.632C844.172 495.744 838.848 501.017 835 500.343C831.149 499.668 828.756 494.974 829.653 489.86Z" fill="#A28170"/>
<path d="M829.464 570.345C829.614 574.876 826.985 578.638 823.589 578.753C820.193 578.865 816.361 576.982 816.209 572.454C816.057 567.925 819.642 562.467 823.04 562.353C826.435 562.24 829.312 565.818 829.464 570.345Z" fill="#A28170"/>
<path d="M1043.24 744.586C1043.24 744.586 980.832 795.57 898.625 748.087C898.625 748.087 877.001 716.526 892.123 669.506C892.123 669.506 958.298 659.844 1016.18 669.506C1016.18 669.506 1016.15 733.636 1043.24 744.586V744.586Z" fill="white"/>
<path d="M941.826 623.436C955.489 622.557 968.889 622.577 982.289 625.84C995.841 629.142 1007.37 635.499 1019.08 642.813C1020.01 643.389 1021.13 642.002 1020.27 641.273C999.781 624.021 967.725 616.433 941.769 623.003C941.532 623.064 941.575 623.45 941.826 623.436V623.436Z" fill="#C1D5D1"/>
<path d="M992.08 615.855C996.902 618.608 1002.05 620.651 1006.77 623.619C1011.44 626.56 1015.63 630.233 1020.4 633.004C1020.71 633.181 1021.13 632.812 1020.91 632.495C1015.06 623.9 1002.8 616.532 992.729 614.314C991.822 614.116 991.22 615.365 992.08 615.855V615.855Z" fill="#C1D5D1"/>
<path d="M1033.61 738.156C1033.61 738.156 1020.63 672.737 1041.7 665.214C1062.77 657.69 1108.28 717.625 1118.26 730.942C1118.26 730.942 1126.03 703.752 1136.02 705.415C1146.01 707.082 1154.25 765.518 1124.05 764.877C1093.85 764.24 1056.62 755.915 1033.61 738.156V738.156Z" fill="#E2EBE9"/>
<path d="M1143.02 716.961C1142.56 716.841 1142.1 716.766 1141.63 716.766C1134.88 716.766 1129.42 729.301 1129.42 744.763C1129.42 752.787 1130.9 758.811 1133.26 762.765C1146.42 755.567 1146.89 731.549 1143.02 716.961V716.961Z" fill="white"/>
<path d="M798.381 727.846C795.843 718.986 791.64 710.354 787.285 705.219C786.782 717.001 792.152 740.797 798.829 748.574C800.858 744.085 801.014 737.034 798.381 727.846Z" fill="white"/>
<path d="M963.155 590.561C960.701 588.497 950.801 574.027 949.777 571.9C947.76 567.708 945.717 563.434 945.048 558.828C944.856 557.516 944.845 556 945.8 555.076C947.101 553.814 949.279 554.462 950.837 555.393C955.406 558.123 960.34 571.474 961.879 573.742C964.178 567.877 965.737 564.415 969.145 560.142C970.478 558.468 972.431 556.834 974.518 557.305C976.362 557.72 977.497 559.712 977.56 561.601C977.624 563.487 974.287 578.371 963.155 590.561V590.561Z" fill="#C696F0"/>
<path d="M946.516 672.324C942.355 673.903 933.084 680.664 937.978 686C940.704 688.973 945.902 686.587 948.865 685.332C956.648 682.035 963.852 677.041 970.529 671.92C974.319 669.014 983.303 663.593 983.893 658.296C983.94 657.868 983.392 657.619 983.059 657.818C980.571 659.304 978.624 662.402 976.467 664.387C972.088 668.415 967.305 672.025 962.386 675.358C958.25 678.163 953.939 680.93 949.368 682.973C947.997 683.585 944.993 685.269 943.343 685.053C940.171 684.638 939.813 680.973 941.257 678.365C942.412 676.278 945.031 674.674 946.996 673.461C947.567 673.106 947.2 672.066 946.516 672.324V672.324Z" fill="#57464B"/>
<path d="M938.706 683.382C939.483 681.671 941.063 680.525 943.016 681.22C944.547 681.764 944.565 683.137 943.46 684.114C942.488 684.977 941.495 684.947 940.304 684.616C939.238 684.32 938.89 685.834 939.859 686.232C941.593 686.939 943.487 686.533 944.797 685.188C946.02 683.934 946.279 681.859 944.869 680.651C942.798 678.875 937.317 679.829 937.965 683.286C938.026 683.615 938.565 683.694 938.706 683.382V683.382Z" fill="#57464B"/>
<path d="M963.758 661.998C967.56 659.442 970.773 656.567 975.028 654.757C975.72 654.46 975.513 653.297 974.818 653.152C972.697 652.71 970.336 654.546 968.73 655.694C966.622 657.203 964.588 658.849 962.693 660.618C961.977 661.287 962.92 662.558 963.758 661.998Z" fill="#57464B"/>
<path d="M978.839 656.135C978.839 656.135 976.16 662.853 982.962 662.775C989.207 662.701 986.518 655.088 986.518 655.088C986.518 655.088 992.501 659.073 993.464 653.497C994.502 647.472 987.952 648.737 987.952 648.737C987.952 648.737 993.804 645.419 988.271 641.966C982.738 638.513 982.294 645.898 982.294 645.898C982.294 645.898 981.231 640.144 976.842 641.966C973.074 643.534 972.827 647.656 977.42 649.153C977.42 649.153 968.749 650.692 971.479 655.325C974.21 659.959 977.355 657.431 978.839 656.135V656.135Z" fill="#53237D"/>
<path d="M986.36 651.386C986.445 653.513 984.787 655.306 982.659 655.39C980.53 655.475 978.737 653.817 978.653 651.691C978.567 649.561 980.257 648.517 982.383 648.433C984.511 648.351 986.276 649.256 986.36 651.386Z" fill="white"/>
<path d="M776.117 512.718C778.6 513.312 781.126 514.044 783.669 514.304C784.315 514.37 784.331 513.45 783.812 513.249C781.476 512.347 778.942 511.874 776.511 511.291C775.586 511.069 775.192 512.496 776.117 512.718Z" fill="#A28170"/>
<path d="M776.618 523.432C778.549 523.598 780.487 523.833 782.426 523.853C782.995 523.86 783.144 522.959 782.564 522.839C780.604 522.435 778.599 522.251 776.618 521.995C775.715 521.878 775.689 523.353 776.618 523.432Z" fill="#A28170"/>
<path d="M775.695 533.209C777.962 533.209 780.314 533.361 782.544 532.93C782.979 532.846 782.979 532.135 782.544 532.051C780.314 531.619 777.962 531.772 775.695 531.772C774.772 531.772 774.77 533.209 775.695 533.209V533.209Z" fill="#A28170"/>
<path d="M797.112 482.855C798.131 483.575 799.144 484.277 800.211 484.925C800.689 485.216 801.283 484.497 800.825 484.13C799.812 483.321 798.77 482.58 797.707 481.84C797.082 481.407 796.5 482.422 797.112 482.855V482.855Z" fill="#A28170"/>
<path d="M806.628 481.264C808.085 482.13 809.531 483.016 811.012 483.838C811.329 484.013 811.565 483.571 811.289 483.367C809.923 482.352 808.513 481.398 807.12 480.426C806.61 480.07 806.086 480.942 806.628 481.264V481.264Z" fill="#A28170"/>
<path d="M780.943 577.43C781.935 576.908 782.93 576.396 783.917 575.864C784.785 575.395 785.825 574.946 786.46 574.171C786.68 573.904 786.571 573.349 786.138 573.394C785.152 573.496 784.235 574.053 783.367 574.513C782.316 575.068 781.282 575.651 780.238 576.222C779.447 576.655 780.15 577.847 780.943 577.43V577.43Z" fill="#A28170"/>
<path d="M786.157 583.293C786.545 582.867 786.934 582.441 787.324 582.013C787.693 581.607 787.127 581.043 786.721 581.411C786.295 581.8 785.869 582.188 785.441 582.578C784.958 583.019 785.717 583.776 786.157 583.293Z" fill="#A28170"/>
<path d="M795.613 588.516C796.141 587.752 796.67 586.991 797.211 586.236C797.533 585.787 796.839 585.292 796.463 585.661C795.793 586.316 795.115 586.963 794.437 587.607C793.674 588.332 794.972 589.438 795.613 588.516V588.516Z" fill="#A28170"/>
<path d="M875.071 540.659C876.222 541.296 877.37 541.935 878.519 542.574C879.541 543.144 880.579 543.881 881.744 544.083C882.113 544.148 882.369 543.75 882.11 543.457C881.327 542.569 880.166 542.077 879.145 541.504C878 540.86 876.852 540.217 875.707 539.574C875 539.179 874.366 540.265 875.071 540.659V540.659Z" fill="#A28170"/>
<path d="M873.223 547.097C874.064 547.663 874.907 548.223 875.765 548.765C876.178 549.025 876.667 548.413 876.293 548.08C875.534 547.41 874.76 546.759 873.982 546.111C873.289 545.531 872.464 546.589 873.223 547.097V547.097Z" fill="#A28170"/>
<path d="M864.239 560.143C865.023 561.066 865.805 561.99 866.589 562.914C867.226 563.666 867.846 564.77 868.807 565.085C869.201 565.214 869.475 564.822 869.417 564.475C869.254 563.497 868.189 562.67 867.559 561.944C866.768 561.027 865.975 560.112 865.184 559.196C864.62 558.544 863.688 559.491 864.239 560.143Z" fill="#A28170"/>
<path d="M861.484 565.661C862.218 566.239 862.894 566.875 863.503 567.585C864 568.167 864.427 569.1 865.248 569.236C865.466 569.271 865.715 569.182 865.771 568.939C865.977 568.027 865.185 567.301 864.595 566.701C863.868 565.962 863.05 565.323 862.184 564.755C861.645 564.403 860.965 565.253 861.484 565.661V565.661Z" fill="#A28170"/>
<path d="M870.524 586.572C871.195 587.258 871.84 587.97 872.434 588.726C872.975 589.415 873.447 590.319 874.19 590.795C874.702 591.124 875.216 590.584 875.128 590.075C874.978 589.195 874.21 588.393 873.662 587.711C873.028 586.923 872.346 586.178 871.629 585.468C870.914 584.759 869.822 585.854 870.524 586.572V586.572Z" fill="#A28170"/>
<path d="M884.771 571.693C885.872 572.16 886.942 572.68 887.975 573.277C888.901 573.811 889.812 574.634 890.855 574.883C891.324 574.994 891.759 574.486 891.496 574.051C890.913 573.081 889.719 572.484 888.759 571.937C887.666 571.308 886.527 570.775 885.364 570.288C884.569 569.953 883.969 571.353 884.771 571.693V571.693Z" fill="#A28170"/>
<path d="M889.178 568.416C890.152 569.023 891.124 569.63 892.098 570.237C892.977 570.786 893.832 571.439 894.833 571.742C895.263 571.871 895.545 571.32 895.257 571.013C894.541 570.253 893.566 569.778 892.681 569.236C891.706 568.636 890.729 568.037 889.751 567.435C889.128 567.054 888.561 568.029 889.178 568.416Z" fill="#A28170"/>
<path d="M885.7 600.46C886.589 601.625 887.592 602.538 888.879 603.249C889.344 603.507 889.899 602.86 889.468 602.486C888.531 601.672 887.719 600.716 887.081 599.653C886.541 598.751 885.089 599.658 885.7 600.46V600.46Z" fill="#A28170"/>
<path d="M878.069 620.421C878.494 621.993 878.927 623.554 879.614 625.034C879.795 625.419 880.466 625.238 880.427 624.816C880.275 623.187 879.861 621.619 879.435 620.045C879.197 619.167 877.83 619.539 878.069 620.421V620.421Z" fill="#A28170"/>
<path d="M883.621 623.62C883.957 623.996 884.294 624.374 884.632 624.75C884.877 625.024 885.334 624.669 885.141 624.358C884.872 623.928 884.605 623.498 884.337 623.069C883.991 622.516 883.173 623.121 883.621 623.62V623.62Z" fill="#A28170"/>
<path d="M820.546 606.588C820.061 607.941 819.844 609.323 819.966 610.758C819.998 611.136 820.61 611.29 820.682 610.855C820.893 609.557 821.274 608.317 821.915 607.166C822.434 606.23 820.918 605.546 820.546 606.588Z" fill="#A28170"/>
<path d="M826.146 610.76C826.033 612.224 825.573 613.547 825.242 614.963C825.153 615.346 825.634 615.521 825.853 615.22C826.746 613.987 827.12 612.405 827.34 610.919C827.471 610.051 826.216 609.874 826.146 610.76Z" fill="#A28170"/>
<path d="M811.048 625.741C811.166 626.972 810.867 628.199 810.991 629.41C811.039 629.895 811.631 630.094 811.916 629.661C812.63 628.574 812.591 626.99 812.507 625.741C812.444 624.803 810.958 624.812 811.048 625.741Z" fill="#A28170"/>
<path d="M819.374 621.768C819.349 622.677 819.229 623.563 818.979 624.439C818.764 625.194 818.397 625.897 818.336 626.683C818.299 627.165 818.923 627.346 819.235 627.056C820.513 625.865 820.672 623.406 820.67 621.768C820.67 620.932 819.399 620.934 819.374 621.768V621.768Z" fill="#A28170"/>
<path d="M852.913 647.45C852.919 648.768 852.922 650.084 852.931 651.403C852.938 652.568 852.827 653.801 853.282 654.893C853.438 655.266 853.889 655.267 854.045 654.893C854.497 653.807 854.388 652.561 854.395 651.403C854.404 650.084 854.406 648.768 854.411 647.45C854.417 646.487 852.91 646.486 852.913 647.45V647.45Z" fill="#A28170"/>
<path d="M862.488 644.395C862.538 645.335 862.586 646.275 862.635 647.218C862.678 648.027 862.697 648.786 863.179 649.472C863.327 649.683 863.671 649.729 863.809 649.472C864.195 648.741 864.151 648.018 864.092 647.218C864.024 646.275 863.954 645.335 863.884 644.395C863.82 643.507 862.439 643.491 862.488 644.395V644.395Z" fill="#A28170"/>
<path d="M856.614 668.241C856.566 669.064 856.498 669.887 856.489 670.711C856.484 671.464 856.405 672.178 856.749 672.864C856.969 673.306 857.697 673.306 857.919 672.864C858.263 672.178 858.184 671.464 858.175 670.711C858.168 669.887 858.1 669.064 858.053 668.241C857.998 667.317 856.67 667.315 856.614 668.241Z" fill="#A28170"/>
<path d="M852.014 673.452C851.708 675.765 851.393 679.04 852.641 681.138C852.974 681.7 853.733 681.408 853.792 680.825C853.912 679.622 853.568 678.369 853.503 677.155C853.439 675.917 853.493 674.685 853.634 673.452C853.752 672.412 852.147 672.439 852.014 673.452V673.452Z" fill="#A28170"/>
<path d="M861.797 684.039C862.146 685.23 862.37 686.431 862.389 687.671C862.407 688.688 862.148 689.73 862.486 690.705C862.586 690.999 863.03 691.208 863.263 690.911C864.7 689.082 863.855 685.67 863.222 683.646C862.939 682.742 861.527 683.121 861.797 684.039Z" fill="#A28170"/>
<path d="M856.645 707.381C856.52 708.777 856.547 710.154 856.819 711.53C857.042 712.654 857.266 713.961 858.263 714.623C858.567 714.825 859.07 714.636 859.142 714.267C859.341 713.227 858.809 712.314 858.553 711.306C858.229 710.019 858.063 708.707 858.043 707.381C858.03 706.468 856.724 706.498 856.645 707.381Z" fill="#A28170"/>
<path d="M861.599 708.161C861.891 709.634 861.971 711.51 862.705 712.829C862.97 713.309 863.597 713.037 863.649 712.573C863.735 711.804 863.502 711.036 863.35 710.284C863.183 709.46 863.017 708.639 862.85 707.815C862.684 706.997 861.44 707.346 861.599 708.161V708.161Z" fill="#A28170"/>
<path d="M808.258 651.569C808.856 650.846 809.361 650.076 809.733 649.211C810.038 648.506 810.514 647.613 810.097 646.886C809.914 646.569 809.54 646.582 809.286 646.782C808.767 647.189 808.767 647.969 808.543 648.56C808.255 649.313 807.839 650.02 807.342 650.654C806.835 651.297 807.721 652.22 808.258 651.569V651.569Z" fill="#A28170"/>
<path d="M812.559 653.126C813.162 652.45 813.769 651.773 814.372 651.095C814.9 650.502 815.532 649.922 815.749 649.142C815.906 648.574 815.296 648.188 814.811 648.422C814.095 648.769 813.646 649.512 813.164 650.128C812.638 650.803 812.111 651.478 811.585 652.153C811.055 652.831 811.954 653.801 812.559 653.126V653.126Z" fill="#A28170"/>
<path d="M810.236 584.298C809.832 585.514 809.299 586.699 808.642 587.801C808.062 588.777 807.204 589.623 806.821 590.696C806.601 591.311 807.338 591.709 807.833 591.474C808.971 590.927 809.717 589.604 810.315 588.544C810.995 587.338 811.457 586.067 811.78 584.722C812.019 583.716 810.56 583.323 810.236 584.298V584.298Z" fill="#A28170"/>
<path d="M856.25 504.197C856.862 503.708 857.474 503.219 858.088 502.732C858.596 502.33 859.112 502.061 859.087 501.347C859.079 501.143 858.94 500.908 858.723 500.869C857.993 500.731 857.698 501.113 857.184 501.592C856.574 502.161 855.96 502.727 855.346 503.294C854.732 503.864 855.623 504.694 856.25 504.197V504.197Z" fill="#A28170"/>
<path d="M750.056 536.74C748.789 538.403 747.269 540.367 746.863 542.465C746.793 542.824 747.253 543.193 747.54 542.858C748.911 541.24 749.799 539.234 751.105 537.549C751.694 536.792 750.645 535.967 750.056 536.74V536.74Z" fill="#A28170"/>
<path d="M754.844 540.867C754.285 542.213 753.691 543.525 753.319 544.935C753.188 545.435 753.861 545.698 754.133 545.279C754.933 544.056 755.513 542.732 756.14 541.413C756.578 540.491 755.239 539.913 754.844 540.867V540.867Z" fill="#A28170"/>
<path d="M768.974 486.745C770.153 486.838 771.328 486.962 772.498 487.148C773.454 487.298 774.43 487.599 775.4 487.562C775.996 487.54 776.34 486.65 775.726 486.355C773.814 485.435 771.065 485.435 768.974 485.308C768.047 485.252 768.059 486.675 768.974 486.745V486.745Z" fill="#A28170"/>
<path d="M766.995 492.971C767.836 493.099 768.668 493.26 769.492 493.478C770.244 493.677 771.001 494.054 771.787 494.006C772.204 493.981 772.533 493.424 772.159 493.107C771.505 492.553 770.65 492.433 769.825 492.268C768.937 492.093 768.04 491.976 767.14 491.897C766.533 491.845 766.382 492.882 766.995 492.971V492.971Z" fill="#A28170"/>
<path d="M710.15 529.482C711.324 528.988 712.498 528.494 713.673 528C714.593 527.614 715.527 527.349 716.121 526.511C716.268 526.302 716.128 525.906 715.86 525.87C714.827 525.732 714.027 526.209 713.093 526.626C711.931 527.146 710.767 527.666 709.604 528.186C708.881 528.51 709.409 529.794 710.15 529.482Z" fill="#A28170"/>
<path d="M754.309 589.535C754.142 590.659 753.956 591.769 753.824 592.896C753.697 593.995 753.342 595.173 753.63 596.253C753.756 596.723 754.363 596.752 754.611 596.381C755.182 595.537 755.198 594.394 755.295 593.392C755.419 592.123 755.358 590.924 755.225 589.658C755.175 589.187 754.393 588.973 754.309 589.535V589.535Z" fill="#A28170"/>
<path d="M726.589 629.72C726.555 632.067 726.286 634.595 726.961 636.866C727.077 637.251 727.718 637.308 727.802 636.866C728.244 634.527 727.731 632.06 727.459 629.72C727.396 629.178 726.596 629.146 726.589 629.72Z" fill="#A28170"/>
<path d="M833.232 534.815C832.942 539.396 826.242 544.866 824.139 544.732C822.036 544.6 808.722 537.071 809.012 532.49C809.302 527.908 824.182 528.234 826.285 528.366C828.387 528.499 833.522 530.235 833.232 534.815Z" fill="#987466"/>
<path d="M833.237 534.818C832.947 539.399 826.247 544.869 824.143 544.735C822.04 544.603 821.668 541.005 821.958 536.422C822.248 531.842 824.186 528.237 826.29 528.369C828.391 528.501 833.527 530.238 833.237 534.818V534.818Z" fill="#57464B"/>
<path d="M1258.35 746.806C1252.13 746.806 1245.43 746.271 1238.13 745.052C1223.83 744.241 1205.09 728.466 1198.88 708.883C1198.2 706.742 1197.69 704.213 1198.62 702.225C1199.47 700.393 1201.11 699.79 1202.87 699.79C1203.97 699.79 1205.11 700.025 1206.14 700.341C1220.14 704.67 1233.18 713.768 1243.49 726.402C1239.17 719.752 1235.13 712.351 1234.14 703.864C1233.15 695.38 1236.07 685.637 1242.37 682.316C1243.45 681.749 1244.65 681.412 1245.83 681.412C1246.61 681.412 1247.37 681.561 1248.08 681.887C1253.02 632.486 1258.23 547.483 1246.62 471.893C1246.61 468.232 1246.49 464.573 1246.29 460.9C1243.6 413.168 1230.88 372.12 1210.83 337.671C1286.96 417.337 1275.4 716.398 1270.82 722.677C1280.51 714.586 1292.14 710.219 1303.78 710.219C1305.11 710.219 1306.45 710.276 1307.79 710.392C1312.58 710.809 1318.2 712.868 1319.62 718.623C1320.59 722.602 1319.03 727.021 1316.57 729.814C1314.11 732.608 1310.9 734.092 1307.74 735.393C1293.09 741.44 1278.07 746.806 1258.35 746.806V746.806Z" fill="#CEE3DE"/>
<path d="M1246.63 471.89C1237.12 409.965 1216.33 354.361 1174.85 329.814C1151.89 316.225 1127.75 311.288 1104.79 311.288C1091.67 311.288 1078.94 312.897 1067.03 315.428C1062.42 311.578 1057.25 307.958 1051.62 304.633C1068.9 298.307 1088.62 293.8 1109.45 293.8C1141.19 293.8 1175.53 304.26 1207.82 334.681C1208.84 335.641 1209.84 336.636 1210.83 337.669C1230.88 372.117 1243.61 413.166 1246.29 460.898C1246.5 464.571 1246.61 468.23 1246.63 471.89Z" fill="#B9D3CF"/>
<path d="M990.845 346.27L996.446 334.905C1007.41 326.279 1027.05 313.617 1051.61 304.629C1057.25 307.955 1062.42 311.574 1067.03 315.425C1023.43 324.686 990.845 346.27 990.845 346.27V346.27Z" fill="#FAE1D9"/>
<path d="M657.281 740.212C651.202 740.212 644.663 739.7 637.539 738.534C619.821 735.502 605.057 722.781 596.213 705.217C592.81 698.462 597.675 695.071 602.523 695.071C603.842 695.071 605.159 695.322 606.309 695.825C615.749 699.951 625.302 704.811 633.676 711.727C627.552 661.837 604.221 428.591 691.339 346.512C694.625 343.417 697.935 340.537 701.259 337.863C691.786 354.737 684.297 372.882 679.145 392.11C633.978 482.521 648.553 644.312 655.211 699.296C656.735 694.962 659.053 691.044 661.992 687.999C664.297 685.613 667.568 683.959 670.507 683.959C672.768 683.959 674.832 684.936 676.106 687.314C677.278 689.501 677.391 692.286 677.239 694.898C676.761 703.105 673.971 711.083 669.449 717.162C678.906 709.433 690.254 705.258 701.612 705.258C702.92 705.258 704.227 705.314 705.532 705.425C710.211 705.824 715.697 707.789 717.079 713.288C718.035 717.088 716.508 721.309 714.106 723.978C711.702 726.649 708.568 728.065 705.489 729.309C691.185 735.085 676.523 740.212 657.281 740.212V740.212ZM642.438 720.203L642.332 720.217C642.477 720.387 642.628 720.548 642.771 720.719C642.66 720.55 642.549 720.373 642.438 720.203V720.203Z" fill="#CEE3DE"/>
<path d="M679.146 392.116C684.298 372.887 691.787 354.742 701.26 337.868C729.154 315.436 758.22 307.463 785.317 307.463C809.222 307.463 831.586 313.672 850.231 321.647C846.524 324.96 843.227 328.334 840.313 331.751C825.055 327.352 807.795 324.171 789.775 324.171C767.837 324.171 744.766 328.889 722.837 341.868C704.224 352.884 689.969 370.451 679.146 392.116V392.116Z" fill="#B9D3CF"/>
<path d="M898.628 357.588C898.628 357.588 874.511 341.611 840.322 331.75C843.236 328.333 846.533 324.959 850.24 321.645C869.175 329.743 884.286 339.66 893.277 346.734L898.628 357.588Z" fill="#FAE1D9"/>
<path d="M979.145 321.333C974.177 330.344 971.072 341.769 972.842 352.089C973.329 354.926 974.471 358.783 977.5 359.868C981.051 361.141 984.497 358.066 986.659 355.651C993.141 348.414 998.634 338.037 1001.13 328.742C1001.57 327.116 999.329 326.204 998.448 327.61C993.218 335.961 990.271 345.935 983.439 353.292C981.527 355.348 978.586 358.078 976.762 354.607C974.748 350.775 975.357 345.042 975.842 340.946C976.592 334.599 978.269 328.203 981.026 322.43C981.622 321.183 979.83 320.089 979.145 321.333V321.333Z" fill="#57464B"/>
<path d="M906.019 325.764C907.334 331.202 907.622 336.876 907.241 342.452C906.973 346.365 906.489 351.873 903.899 355.077C901.703 357.791 899.664 354.776 898.397 352.643C893.755 344.835 893.036 335.534 889.817 327.216C889.261 325.78 886.857 325.825 886.934 327.606C887.288 335.859 890.131 345.012 893.777 352.442C895.246 355.439 897.523 359.532 901.259 359.924C908.44 360.676 909.89 347.695 910.225 343.05C910.658 337.03 909.912 330.944 908.118 325.186C907.703 323.849 905.687 324.396 906.019 325.764V325.764Z" fill="#57464B"/>
<path d="M1046.03 287.788C1046.03 287.788 1051.47 270.194 1059.75 270.194C1060.65 270.194 1061.59 270.404 1062.56 270.867C1072.4 275.589 1051.93 284.641 1046.03 287.788V287.788Z" fill="#B9D3CF"/>
<path d="M1167.41 357.607C1164.08 357.607 1158.95 348.374 1156.95 345.292C1156.95 345.292 1172.16 348.603 1169.51 355.616C1168.97 357.023 1168.25 357.607 1167.41 357.607Z" fill="#B9D3CF"/>
<path d="M771.655 356.309C769.63 356.309 768.382 355.16 768.576 352.128C768.95 346.319 775.423 344.964 781.383 344.964C786.599 344.964 791.422 346.002 791.422 346.002C787.356 348.603 776.901 356.311 771.655 356.309Z" fill="#B9D3CF"/>
<path d="M608.521 660.546C600.341 655.919 571.914 642.492 585.896 636.202C587.197 635.616 588.452 635.352 589.66 635.352C601.411 635.352 608.521 660.546 608.521 660.546V660.546Z" fill="#CEE3DE"/>
<path d="M1319.91 680.702C1319.91 680.702 1327.38 660.063 1336.37 660.063C1337.52 660.063 1338.69 660.398 1339.88 661.155C1350.35 667.846 1326.77 677.306 1319.91 680.702V680.702Z" fill="#CEE3DE"/>
<path d="M1214.37 678.538C1214.37 678.538 1192.77 671.341 1201.08 663.672C1202.17 662.665 1203.32 662.221 1204.47 662.221C1209.84 662.221 1215.18 671.851 1214.37 678.538Z" fill="#CEE3DE"/>
<path d="M834.737 291.32C830.348 289.23 815.194 283.326 822.184 279.574C822.938 279.17 823.675 278.989 824.391 278.989C830.309 278.989 834.737 291.32 834.737 291.32Z" fill="#B9D3CF"/>
<path d="M674.831 659.154C674.831 659.154 677.333 645.211 683.693 645.211C684.191 645.211 684.712 645.297 685.258 645.482C692.774 648.018 678.81 656.36 674.831 659.154V659.154Z" fill="#CEE3DE"/>
<path d="M1299.91 652.356C1299.91 652.356 1298.54 636.43 1306.07 636.43C1306.19 636.43 1306.3 636.434 1306.42 636.441C1314.33 636.935 1303.03 648.622 1299.91 652.356Z" fill="#CEE3DE"/>
<path d="M865.871 227.303C865.463 227.279 865.054 227.249 864.645 227.251C861.879 227.256 861.874 231.545 864.645 231.55C865.054 231.55 865.463 231.522 865.871 231.498C868.568 231.343 868.574 227.458 865.871 227.303V227.303Z" fill="#A4CDC8"/>
<path d="M1074.19 196.897C1077.7 196.897 1077.71 191.443 1074.19 191.443C1070.68 191.443 1070.67 196.897 1074.19 196.897Z" fill="#7CB6AE"/>
<path d="M1141.59 197.14C1145.41 197.14 1145.42 191.197 1141.59 191.197C1137.76 191.197 1137.76 197.14 1141.59 197.14Z" fill="#7CB6AE"/>
<path d="M1278.19 389.461C1278.13 389.853 1278.07 390.245 1278.01 390.639C1277.86 391.725 1277.93 392.833 1278.81 393.635C1279.41 394.188 1280.15 394.537 1280.98 394.537C1281.77 394.537 1282.6 394.193 1283.16 393.635C1284.01 392.785 1284.12 391.764 1283.95 390.639C1283.9 390.245 1283.84 389.853 1283.78 389.461C1283.61 388.265 1282.14 387.277 1280.98 387.329C1279.82 387.383 1278.37 388.181 1278.19 389.461V389.461Z" fill="#7CB6AE"/>
<path d="M1218.18 645.421C1221.32 645.421 1221.33 640.527 1218.18 640.527C1215.02 640.527 1215.02 645.421 1218.18 645.421Z" fill="#7CB6AE"/>
<path d="M1178.35 769.008C1182.85 769.008 1182.86 762.017 1178.35 762.017C1173.85 762.017 1173.85 769.008 1178.35 769.008Z" fill="#7CB6AE"/>
<path d="M1298.6 914.391C1298.02 914.579 1297.45 914.76 1296.91 915.05C1295.32 915.9 1295.32 918.41 1296.91 919.26C1297.45 919.55 1298.02 919.731 1298.6 919.919C1300.39 920.498 1302.23 918.95 1302.23 917.153C1302.23 915.361 1300.39 913.811 1298.6 914.391V914.391Z" fill="#7CB6AE"/>
<path d="M1279.45 953.924C1281.43 953.924 1281.43 950.847 1279.45 950.847C1277.47 950.847 1277.46 953.924 1279.45 953.924Z" fill="#7CB6AE"/>
<path d="M626.915 815.168C629.704 815.168 629.707 810.832 626.915 810.832C624.124 810.832 624.121 815.168 626.915 815.168Z" fill="#7CB6AE"/>
<path d="M645.303 889.913C649.667 889.913 649.675 883.13 645.303 883.13C640.939 883.13 640.932 889.913 645.303 889.913Z" fill="#7CB6AE"/>
<path d="M575.114 209.018C575.344 208.705 575.592 208.413 575.745 208.055C575.925 207.633 575.872 207.183 576.015 206.754C576.301 205.887 575.376 204.962 574.509 205.248C574.08 205.39 573.631 205.338 573.206 205.517C572.85 205.671 572.557 205.92 572.245 206.149C571.169 206.935 570.799 208.424 571.819 209.442C572.832 210.456 574.329 210.096 575.114 209.018V209.018Z" fill="#7CB6AE"/>
<path d="M578.936 286.042C579.448 285.337 579.867 284.743 580.196 283.923C580.899 282.161 578.751 280.013 576.99 280.717C576.17 281.044 575.574 281.465 574.869 281.975C573.342 283.085 572.826 285.201 574.269 286.644C575.701 288.076 577.826 287.571 578.936 286.042V286.042Z" fill="#7CB6AE"/>
<path d="M666.743 204.036C669.578 204.036 669.584 199.63 666.743 199.63C663.909 199.63 663.904 204.036 666.743 204.036Z" fill="#7CB6AE"/>
<path d="M588.63 507.177C591.283 507.177 591.288 503.053 588.63 503.053C585.974 503.053 585.97 507.177 588.63 507.177Z" fill="#7CB6AE"/>
<path d="M1348.37 194.98C1351.39 194.98 1351.39 190.296 1348.37 190.296C1345.36 190.296 1345.35 194.98 1348.37 194.98Z" fill="#7CB6AE"/>
<path d="M557.998 968.233C560.652 968.233 560.656 964.107 557.998 964.107C555.343 964.107 555.338 968.233 557.998 968.233Z" fill="#7CB6AE"/>
<path d="M1345.31 259.947C1349.13 259.947 1349.14 254.004 1345.31 254.004C1341.48 254.004 1341.47 259.947 1345.31 259.947Z" fill="#7CB6AE"/>
<path d="M724.955 266.8C727.746 266.8 727.749 262.464 724.955 262.464C722.166 262.464 722.161 266.8 724.955 266.8Z" fill="#7CB6AE"/>
<path d="M705.038 468.014C708.548 468.014 708.554 462.561 705.038 462.561C701.528 462.561 701.523 468.014 705.038 468.014Z" fill="#A4CDC8"/>
<path d="M737.771 473.473C738.77 473.087 740.134 472.738 740.134 471.417C740.134 470.094 738.77 469.747 737.771 469.36C736.452 468.852 735.07 470.137 735.07 471.417C735.07 472.702 736.456 473.98 737.771 473.473Z" fill="#A4CDC8"/>
<path d="M1083.38 654.505C1086.39 654.505 1086.4 649.821 1083.38 649.821C1080.36 649.821 1080.36 654.505 1083.38 654.505Z" fill="#A4CDC8"/>
<path d="M1188.55 450.332L1188.83 450.436C1188.42 450.119 1188 449.802 1187.59 449.485C1188.31 450.821 1189.42 451.75 1191.02 451.533C1192.49 451.336 1193.82 450.006 1193.75 448.444C1193.68 447.001 1192.81 445.855 1191.44 445.41C1189.75 444.865 1188.33 446.018 1187.59 447.402C1188 447.085 1188.42 446.768 1188.83 446.453L1188.55 446.555C1186.7 447.246 1186.7 449.639 1188.55 450.332Z" fill="#A4CDC8"/>
</svg>
