<svg width="445" height="617" viewBox="0 0 445 617" fill="none" xmlns="http://www.w3.org/2000/svg">
<g id="Group 1">
<g id="Flower_3">
<path id="Vector" d="M361.839 384.649C395.631 384.649 423.024 357.255 423.024 323.463C423.024 289.671 395.631 262.277 361.839 262.277C328.047 262.277 300.653 289.671 300.653 323.463C300.653 357.255 328.047 384.649 361.839 384.649Z" fill="#53237D"/>
<path id="Vector_2" d="M361.284 434.114L361.786 323.126" stroke="#3F3D56" stroke-width="2" stroke-miterlimit="10"/>
<path id="Vector_3" d="M361.786 338.821C370.454 338.821 377.481 331.794 377.481 323.126C377.481 314.458 370.454 307.431 361.786 307.431C353.117 307.431 346.09 314.458 346.09 323.126C346.09 331.794 353.117 338.821 361.786 338.821Z" fill="#3F3D56"/>
<path id="Vector_4" d="M361.477 391.53C361.477 391.53 359.452 343.296 313.463 348.693Z" fill="#3F3D56"/>
</g>
<g id="Flower_2">
<path id="Vector_5" d="M105.524 261.806C139.315 261.806 166.709 234.413 166.709 200.621C166.709 166.829 139.315 139.435 105.524 139.435C71.7316 139.435 44.3378 166.829 44.3378 200.621C44.3378 234.413 71.7316 261.806 105.524 261.806Z" fill="#53237D"/>
<path id="Vector_6" d="M102.059 426.503L105.58 200.553" stroke="#3F3D56" stroke-width="2" stroke-miterlimit="10"/>
<path id="Vector_7" d="M105.58 216.248C114.249 216.248 121.276 209.221 121.276 200.553C121.276 191.885 114.249 184.858 105.58 184.858C96.9121 184.858 89.885 191.885 89.885 200.553C89.885 209.221 96.9121 216.248 105.58 216.248Z" fill="#3F3D56"/>
<path id="Vector_8" d="M104.584 264.465C104.584 264.465 103.094 216.211 57.0472 221.1Z" fill="#3F3D56"/>
<path id="Vector_9" d="M102.126 422.189C102.126 422.189 113.66 329.621 55.4399 324.228" stroke="#3F3D56" stroke-width="2" stroke-miterlimit="10"/>
<path id="Vector_10" d="M55.4399 339.924C64.1082 339.924 71.1353 332.897 71.1353 324.228C71.1353 315.56 64.1082 308.533 55.4399 308.533C46.7716 308.533 39.7446 315.56 39.7446 324.228C39.7446 332.897 46.7716 339.924 55.4399 339.924Z" fill="#3F3D56"/>
</g>
<g id="Flower_1">
<path id="Vector_11" d="M237.103 125.971C270.895 125.971 298.289 98.5772 298.289 64.7853C298.289 30.9933 270.895 3.59952 237.103 3.59952C203.311 3.59952 175.917 30.9933 175.917 64.7853C175.917 98.5772 203.311 125.971 237.103 125.971Z" fill="#53237D"/>
<path id="Vector_12" d="M237.141 435.216V65.01" stroke="#3F3D56" stroke-width="2" stroke-miterlimit="10"/>
<path id="Vector_13" d="M237.141 80.53C245.81 80.53 252.837 73.5029 252.837 64.8346C252.837 56.1663 245.81 49.1393 237.141 49.1393C228.473 49.1393 221.446 56.1663 221.446 64.8346C221.446 73.5029 228.473 80.53 237.141 80.53Z" fill="#3F3D56"/>
<path id="Vector_14" d="M188.934 348.376C197.602 348.376 204.63 341.349 204.63 332.68C204.63 324.012 197.602 316.985 188.934 316.985C180.266 316.985 173.239 324.012 173.239 332.68C173.239 341.349 180.266 348.376 188.934 348.376Z" fill="#3F3D56"/>
<path id="Vector_15" d="M237.141 145.007C237.141 145.007 234.899 96.7825 188.934 102.388Z" fill="#3F3D56"/>
<path id="Vector_16" d="M237.141 281.719C237.141 281.719 234.899 233.494 188.934 239.1Z" fill="#3F3D56"/>
<path id="Vector_17" d="M237.141 430.901C237.141 430.901 247.231 337.165 188.934 332.68" stroke="#3F3D56" stroke-width="2" stroke-miterlimit="10"/>
<path id="Vector_18" d="M286.311 201.148C294.98 201.148 302.007 194.121 302.007 185.452C302.007 176.784 294.98 169.757 286.311 169.757C277.643 169.757 270.616 176.784 270.616 185.452C270.616 194.121 277.643 201.148 286.311 201.148Z" fill="#3F3D56"/>
<path id="Vector_19" d="M238.104 278.673C238.104 278.673 228.014 189.937 286.311 185.452" stroke="#3F3D56" stroke-width="2" stroke-miterlimit="10"/>
</g>
<path id="bubble3" d="M368 150C363.649 150 359.395 148.71 355.777 146.292C352.16 143.875 349.34 140.439 347.675 136.419C346.01 132.399 345.574 127.976 346.423 123.708C347.272 119.44 349.367 115.52 352.444 112.444C355.52 109.367 359.44 107.272 363.708 106.423C367.976 105.574 372.399 106.01 376.419 107.675C380.439 109.34 383.875 112.16 386.292 115.777C388.71 119.395 390 123.649 390 128C389.993 133.833 387.673 139.425 383.549 143.549C379.425 147.673 373.833 149.993 368 150V150ZM368 108C364.044 108 360.178 109.173 356.889 111.371C353.6 113.568 351.036 116.692 349.522 120.346C348.009 124.001 347.613 128.022 348.384 131.902C349.156 135.781 351.061 139.345 353.858 142.142C356.655 144.939 360.219 146.844 364.098 147.616C367.978 148.387 371.999 147.991 375.654 146.478C379.308 144.964 382.432 142.4 384.629 139.111C386.827 135.822 388 131.956 388 128C387.994 122.698 385.885 117.614 382.135 113.865C378.386 110.115 373.302 108.006 368 108Z" fill="#3F3D56"/>
<path id="bubble1" d="M22 44C17.6488 44 13.3954 42.7097 9.77747 40.2923C6.15959 37.8749 3.33979 34.439 1.67466 30.419C0.00952947 26.3991 -0.42614 21.9756 0.422735 17.708C1.27161 13.4404 3.36691 9.52042 6.44367 6.44366C9.52043 3.3669 13.4404 1.27161 17.708 0.422733C21.9756 -0.426142 26.3991 0.00953507 30.419 1.67466C34.439 3.33979 37.875 6.15958 40.2923 9.77746C42.7097 13.3953 44 17.6488 44 22C43.9934 27.8328 41.6735 33.4247 37.5491 37.5491C33.4247 41.6735 27.8328 43.9934 22 44V44ZM22 2.00001C18.0444 2.00001 14.1776 3.17299 10.8886 5.37062C7.59963 7.56824 5.03617 10.6918 3.52242 14.3463C2.00867 18.0009 1.61261 22.0222 2.38431 25.9018C3.15602 29.7814 5.06083 33.3451 7.85788 36.1421C10.6549 38.9392 14.2186 40.844 18.0982 41.6157C21.9778 42.3874 25.9992 41.9913 29.6537 40.4776C33.3082 38.9638 36.4318 36.4004 38.6294 33.1114C40.827 29.8224 42 25.9556 42 22C41.994 16.6975 39.8849 11.614 36.1355 7.86457C32.386 4.11516 27.3025 2.00607 22 2.00001V2.00001Z" fill="#3F3D56"/>
<path id="bubble2" d="M432 198C439.18 198 445 192.18 445 185C445 177.82 439.18 172 432 172C424.82 172 419 177.82 419 185C419 192.18 424.82 198 432 198Z" fill="#3F3D56"/>
<path id="Vector_20" d="M238 617C345.143 617 432 530.143 432 423H44C44 530.143 130.857 617 238 617Z" fill="#53237D"/>
</g>
</svg>
