<svg width="1692" height="1288" viewBox="0 0 1692 1288" fill="none" xmlns="http://www.w3.org/2000/svg">
<g id="Hero_img">
<g id="hero_mom_window 1" clip-path="url(#clip0)">
<path id="Vector" d="M1692 1035.27H282.378V1139.37H1692V1035.27Z" fill="#E6E6E6"/>
<path id="Vector 2" d="M1690.05 1035.36H282.029V1031.88H1690.68L1690.05 1035.36Z" fill="#3F3D56"/>
<path id="Vector 3" d="M1387.93 467.683V775.849H586.446V467.683C586.446 365.414 625.552 267.015 695.755 192.642C765.957 118.269 861.945 73.5495 964.053 67.6445C971.704 67.1985 979.417 66.9782 987.189 66.9836C991.618 66.9836 996.031 67.0497 1000.41 67.2149C1102.09 70.4322 1198.71 112.328 1270.55 184.351C1272.72 186.516 1274.85 188.697 1276.98 190.911C1348.22 265.447 1387.96 364.585 1387.93 467.683Z" fill="#E6E6E6"/>
<path id="Vector 4" d="M1000.41 67.215V775.849H964.053V67.6445C971.704 67.1985 979.416 66.9782 987.189 66.9836C991.618 66.9836 996.031 67.0497 1000.41 67.215Z" fill="white"/>
<path id="Vector 5" d="M1307.8 227.264H666.579C676.124 214.547 686.414 202.408 697.399 190.911H1276.98C1287.96 202.408 1298.25 214.547 1307.8 227.264Z" fill="white"/>
<path id="Vector 6" d="M1326.94 331.363H1042.88V812.201H1326.94V331.363Z" fill="white"/>
<path id="Vector 7" d="M1141.94 412.596H1098.97V455.558H1141.94V412.596Z" fill="#E6E6E6"/>
<path id="Vector 8" d="M1211.16 412.596H1168.2V455.558H1211.16V412.596Z" fill="#E6E6E6"/>
<path id="Vector 9" d="M1280.39 412.596H1237.42V455.558H1280.39V412.596Z" fill="#E6E6E6"/>
<path id="Vector 10" d="M1143.13 510.454H1100.16V553.418H1143.13V510.454Z" fill="#E6E6E6"/>
<path id="Vector 11" d="M1212.36 510.454H1169.39V553.418H1212.36V510.454Z" fill="#E6E6E6"/>
<path id="Vector 12" d="M1281.58 510.454H1238.61V553.418H1281.58V510.454Z" fill="#E6E6E6"/>
<path id="Vector 13" d="M1144.32 608.314H1101.36V651.276H1144.32V608.314Z" fill="#E6E6E6"/>
<path id="Vector 14" d="M1213.55 608.314H1170.58V651.276H1213.55V608.314Z" fill="#E6E6E6"/>
<path id="Vector 15" d="M1282.77 608.314H1239.81V651.276H1282.77V608.314Z" fill="#E6E6E6"/>
<path id="Vector 16" d="M1145.52 706.172H1102.55V749.136H1145.52V706.172Z" fill="#E6E6E6"/>
<path id="Vector 17" d="M1214.74 706.172H1171.78V749.136H1214.74V706.172Z" fill="#E6E6E6"/>
<path id="Vector 18" d="M1283.97 706.172H1241V749.136H1283.97V706.172Z" fill="#E6E6E6"/>
<path id="Vector 19" d="M1145.52 706.172H1102.55V749.136H1145.52V706.172Z" fill="#E6E6E6"/>
<path id="Vector 20" d="M1214.74 706.172H1171.78V749.136H1214.74V706.172Z" fill="#E6E6E6"/>
<path id="Vector 21" d="M1283.97 706.172H1241V749.136H1283.97V706.172Z" fill="#E6E6E6"/>
<g id="Tree2">
<path id="Vector 22" d="M681.718 678.079C714.423 678.079 740.937 651.568 740.937 618.866C740.937 586.163 714.423 559.653 681.718 559.653C649.012 559.653 622.498 586.163 622.498 618.866C622.498 651.568 649.012 678.079 681.718 678.079Z" fill="white"/>
<path id="Vector 23" d="M681.88 618.866H682.043L684.972 786.745H678.79L681.88 618.866Z" fill="white"/>
<path id="Vector 24" d="M692.663 710.308L691.299 707.718L681.51 712.87L682.874 715.461L692.663 710.308Z" fill="white"/>
</g>
<g id="Tree1">
<path id="Vector 25" d="M855.822 621.498C905.557 621.498 945.875 581.186 945.875 531.455C945.875 481.726 905.557 441.412 855.822 441.412C806.086 441.412 765.767 481.726 765.767 531.455C765.767 581.186 806.086 621.498 855.822 621.498Z" fill="white"/>
<path id="Vector 26" d="M856.069 531.455H856.317L860.769 786.744H851.369L856.069 531.455Z" fill="white"/>
<path id="Vector 27" d="M872.467 670.509L870.391 666.569L855.506 674.407L857.58 678.347L872.467 670.509Z" fill="white"/>
</g>
<path id="Bird1" d="M670.082 445.475L685.294 433.308C673.477 432.005 668.621 438.449 666.633 443.551C657.401 439.716 647.35 444.741 647.35 444.741L677.788 455.789C676.252 451.688 673.58 448.11 670.082 445.475Z" fill="white"/>
<path id="Bird2" d="M830.379 346.332L845.592 334.166C833.774 332.862 828.917 339.307 826.931 344.408C817.699 340.575 807.648 345.598 807.648 345.598L838.084 356.647C836.55 352.546 833.876 348.968 830.379 346.332Z" fill="white"/>
<path id="Bird3" d="M769.236 440.517L784.448 428.352C772.629 427.047 767.774 433.492 765.786 438.593C756.554 434.76 746.503 439.783 746.503 439.783L776.941 450.833C775.405 446.732 772.733 443.154 769.236 440.517Z" fill="white"/>
<path id="Vector 31" d="M1430.07 739.498H544.307V812.201H1430.07V739.498Z" fill="#E6E6E6"/>
<path id="Vector 32" d="M1610.82 928.75C1610.82 928.75 1431.65 846.278 1494.59 789.086C1557.53 731.895 1610.82 928.75 1610.82 928.75Z" fill="#E6E6E6"/>
<path id="Vector 33" d="M1607.7 947.995C1607.7 947.995 1525.35 677.437 1646.62 690.376C1767.88 703.315 1607.7 947.995 1607.7 947.995Z" fill="#E6E6E6"/>
<path id="Vector 34" d="M1547.66 924L1551.11 969.259L1551.17 970.041C1551.16 977.108 1551.52 984.171 1552.24 991.201C1556.93 1037.37 1577.09 1058.4 1600.65 1058.4C1624.22 1058.4 1643.5 1037.37 1648.2 991.201C1648.91 984.171 1649.27 977.108 1649.27 970.041L1649.29 969.409L1649.31 969.259L1652.78 924H1547.66Z" fill="#E6E6E6"/>
<path id="Vector 35" d="M1649.31 969.259L1649.29 969.409L1649.27 970.041C1649.27 977.107 1648.91 984.171 1648.2 991.201H1552.24C1551.52 984.171 1551.16 977.107 1551.17 970.041L1551.11 969.259H1649.31Z" fill="white"/>
<path id="Vector 36" d="M1372.92 1092.6L1361.18 1093.98C1351.9 1099.57 1341.01 1101.67 1328.95 1101.25C1327.26 1101.2 1325.62 1100.71 1324.19 1099.83C1322.75 1098.95 1321.57 1097.71 1320.76 1096.23C1320.06 1094.93 1319.66 1093.49 1319.61 1092.02C1319.56 1090.55 1319.84 1089.08 1320.45 1087.74C1321.05 1086.39 1321.96 1085.21 1323.1 1084.27C1324.23 1083.33 1325.57 1082.67 1327.01 1082.34L1335.94 1080.26L1357.47 1059.2L1370.47 1035.69L1389.34 1037.85L1393.27 1067.71C1393.77 1073.69 1391.92 1079.63 1388.13 1084.27C1384.33 1088.91 1378.88 1091.9 1372.92 1092.6Z" fill="#FFB8B8"/>
<path id="Vector 37" d="M1189.98 1077.49L1178.46 1080.19C1169.88 1086.81 1159.3 1090.14 1147.27 1091.09C1145.59 1091.23 1143.91 1090.93 1142.38 1090.22C1140.85 1089.51 1139.54 1088.41 1138.56 1087.04C1137.72 1085.83 1137.16 1084.44 1136.94 1082.99C1136.72 1081.53 1136.84 1080.04 1137.29 1078.64C1137.73 1077.23 1138.5 1075.95 1139.52 1074.89C1140.55 1073.83 1141.8 1073.02 1143.19 1072.53L1151.82 1069.44L1170.82 1046.07L1181.05 1021.23H1200.04L1207.35 1050.45C1208.53 1056.33 1207.37 1062.44 1204.13 1067.48C1200.89 1072.53 1195.81 1076.11 1189.98 1077.49Z" fill="#FFB8B8"/>
<path id="Vector 38" d="M1180.54 1022.88L1202.02 1026.18L1235.9 855.163L1294.56 755.194L1365.62 1046.01L1392.06 1050.97C1389.1 887.198 1403.57 681.02 1370.58 656.052L1226.81 672.577L1164.01 841.117L1180.54 1022.88Z" fill="#2F2E41"/>
<path id="Vector 39" d="M1284.65 401.589C1312.03 401.589 1334.22 379.395 1334.22 352.018C1334.22 324.639 1312.03 302.446 1284.65 302.446C1257.27 302.446 1235.07 324.639 1235.07 352.018C1235.07 379.395 1257.27 401.589 1284.65 401.589Z" fill="#FFB8B8"/>
<path id="Vector 40" d="M1354.05 428.026L1294.56 437.94L1279.69 385.064L1322.66 371.846L1354.05 428.026Z" fill="#FFB8B8"/>
<path id="Vector 41" d="M1378.84 662.663L1220.2 677.533C1232.92 633.314 1244.57 589.249 1235.07 545.344C1223.01 506.147 1234.65 482.838 1266.47 464.378L1287.95 416.459L1345.79 409.85C1361.11 434.474 1367.37 463.662 1363.51 492.403C1355.27 554.9 1357.5 612.894 1378.84 662.663Z" fill="#53237D"/>
<path id="Vector 42" d="M1283.53 293.472C1266.99 297.251 1248.15 302.606 1247.1 307.585C1230.08 311.873 1217.23 322.144 1214.61 337.804C1214.39 339.159 1214.47 340.543 1214.84 341.863C1215.22 343.182 1215.88 344.402 1216.77 345.439C1217.67 346.476 1218.79 347.304 1220.04 347.864C1221.29 348.424 1222.65 348.703 1224.02 348.681C1233.27 348.563 1247.17 347.676 1256.35 343.844C1283 361.016 1287.47 405.679 1275.83 436.081L1294.15 434.401L1313.1 378.934L1317.94 432.222L1359.74 426.694L1354.36 358.743C1352.7 342.727 1347.25 327.338 1338.45 313.851C1337.54 312.496 1336.54 311.201 1335.46 309.974C1329.1 302.791 1320.92 297.465 1311.78 294.558C1302.63 291.653 1292.87 291.277 1283.53 293.472Z" fill="#2F2E41"/>
<path id="Vector 43" d="M1178.55 1109.64C1178.46 1110.45 1178.54 1111.27 1178.79 1112.04C1179.03 1112.82 1179.44 1113.53 1179.98 1114.14C1180.52 1114.75 1181.18 1115.24 1181.92 1115.58C1182.66 1115.92 1183.46 1116.1 1184.28 1116.1L1202.87 1116.29C1203.87 1116.22 1204.8 1115.78 1205.49 1115.04C1206.17 1114.31 1206.55 1113.34 1206.55 1112.34C1206.55 1111.55 1206.32 1110.77 1205.87 1110.12C1205.43 1109.46 1204.8 1108.95 1204.06 1108.66L1198.58 1106.47L1190.6 1095.3H1184.22C1181.09 1099.48 1179.13 1104.42 1178.55 1109.61L1178.55 1109.64Z" fill="#FFB8B8"/>
<path id="Vector 44" d="M1134.05 1109.64C1134.14 1110.45 1134.06 1111.27 1133.81 1112.04C1133.57 1112.82 1133.16 1113.53 1132.62 1114.14C1132.08 1114.75 1131.42 1115.24 1130.68 1115.58C1129.94 1115.92 1129.14 1116.1 1128.32 1116.1L1109.73 1116.29C1108.73 1116.22 1107.8 1115.78 1107.11 1115.04C1106.43 1114.31 1106.05 1113.34 1106.05 1112.34C1106.05 1111.55 1106.28 1110.77 1106.73 1110.12C1107.17 1109.46 1107.8 1108.95 1108.54 1108.66L1114.02 1106.47L1122 1095.3H1128.38C1131.51 1099.48 1133.47 1104.42 1134.05 1109.61L1134.05 1109.64Z" fill="#FFB8B8"/>
<path id="Vector 45" d="M1120.4 1095.3H1129.98L1163.48 950.136L1181.03 1096.9H1192.2L1207.35 907.863L1129.98 907.065L1120.4 1095.3Z" fill="#3F3D56"/>
<path id="Vector 49" d="M1126.79 911.851C1153.62 928.406 1181.98 926.787 1211.34 913.446L1204.96 765.091L1171.46 763.496L1136.36 768.282L1118.81 782.639L1126.79 911.851Z" fill="#53237D"/>
<g id="Girl_Hand">
<path id="Vector 46" d="M1077.33 828.9H1090.09V798.591L1093 792.784C1093.58 791.62 1093.88 790.332 1093.87 789.03C1093.86 787.727 1093.54 786.445 1092.94 785.288C1092.35 784.13 1091.48 783.131 1090.42 782.371C1089.37 781.611 1088.14 781.112 1086.86 780.914C1085.68 780.732 1084.47 780.807 1083.33 781.136C1082.18 781.463 1081.12 782.034 1080.21 782.811C1079.31 783.586 1078.58 784.55 1078.08 785.633C1077.59 786.716 1077.33 787.893 1077.33 789.086V828.9Z" fill="#FFB8B8"/>
<path id="Vector 50" d="M1094.88 859.209L1129.98 832.09L1118.81 782.638L1098.07 820.924L1091.69 814.543L1072.54 828.9L1094.88 859.209Z" fill="#53237D"/>
</g>
<path id="Vector 51" d="M1250.68 767.639L1239.51 773.825L1224.82 747.316L1219.46 743.644C1218.39 742.907 1217.51 741.927 1216.88 740.783C1216.26 739.64 1215.91 738.365 1215.87 737.063C1215.84 735.76 1216.11 734.468 1216.66 733.291C1217.22 732.113 1218.05 731.083 1219.08 730.285C1220.02 729.556 1221.11 729.038 1222.27 728.77C1223.44 728.5 1224.64 728.484 1225.81 728.725C1226.98 728.966 1228.08 729.456 1229.04 730.162C1230 730.867 1230.8 731.774 1231.37 732.815L1235.98 741.129L1250.68 767.639Z" fill="#FFB8B8"/>
<path id="Vector 52" d="M1188.21 812.15L1230.57 789.665L1252.82 777.853L1256.01 758.71L1241.65 744.353L1224.1 755.52L1225.7 768.282L1204.96 765.091L1188.21 812.15Z" fill="#53237D"/>
<g id="Girl_Head">
<path id="Vector 47" d="M1153.11 753.925C1169.41 753.925 1182.62 740.712 1182.62 724.413C1182.62 708.115 1169.41 694.902 1153.11 694.902C1136.81 694.902 1123.59 708.115 1123.59 724.413C1123.59 740.712 1136.81 753.925 1153.11 753.925Z" fill="#FFB8B8"/>
<path id="Vector 48" d="M1141.14 774.662H1171.46V739.568H1141.14V774.662Z" fill="#FFB8B8"/>
<path id="Vector 53" d="M1159.49 748.341C1178.87 748.341 1194.59 732.629 1194.59 713.247C1194.59 693.865 1178.87 678.152 1159.49 678.152C1140.11 678.152 1124.39 693.865 1124.39 713.247C1124.39 732.629 1140.11 748.341 1159.49 748.341Z" fill="#2F2E41"/>
<path id="Vector 54" d="M1178.64 689.319C1187.45 689.319 1194.59 682.177 1194.59 673.367C1194.59 664.556 1187.45 657.414 1178.64 657.414C1169.82 657.414 1162.68 664.556 1162.68 673.367C1162.68 682.177 1169.82 689.319 1178.64 689.319Z" fill="#2F2E41"/>
<path id="Vector 55" d="M1177.86 686.702C1181.03 688.353 1184.65 688.897 1188.16 688.245C1191.66 687.593 1194.85 685.784 1197.21 683.107C1199.57 680.43 1200.96 677.04 1201.17 673.478C1201.37 669.916 1200.37 666.389 1198.34 663.46C1200.18 664.848 1201.7 666.62 1202.8 668.653C1203.89 670.687 1204.53 672.933 1204.67 675.236C1204.81 677.54 1204.45 679.846 1203.61 681.997C1202.77 684.147 1201.47 686.09 1199.81 687.69C1198.14 689.29 1196.15 690.51 1193.97 691.265C1191.79 692.021 1189.47 692.294 1187.17 692.065C1184.88 691.837 1182.66 691.113 1180.67 689.942C1178.68 688.771 1176.97 687.183 1175.65 685.286C1176.35 685.819 1177.09 686.292 1177.86 686.702Z" fill="#2F2E41"/>
</g>
<path id="Vector 56" d="M1276.38 712.234L1277.48 750.596C1277.63 755.882 1275.77 761.031 1272.28 765.003C1268.79 768.977 1263.92 771.478 1258.65 772.005C1255.28 772.341 1251.88 771.855 1248.74 770.585C1245.59 769.317 1242.81 767.304 1240.62 764.718C1238.43 762.134 1236.89 759.056 1236.16 755.75C1235.42 752.443 1235.49 749.007 1236.38 745.735L1244.99 713.885L1269.78 578.391L1268.12 499.079L1321 497.426L1311.09 586.654L1276.38 712.234Z" fill="#FFB8B8"/>
<path id="Vector 57" d="M1324.31 505.687C1305.15 498.391 1283.98 498.391 1264.82 505.687L1268.12 439.593C1268.12 432.581 1270.91 425.857 1275.87 420.899C1280.82 415.939 1287.55 413.154 1294.56 413.154C1301.58 413.154 1308.3 415.939 1313.26 420.899C1318.22 425.857 1321 432.581 1321 439.593L1324.31 505.687Z" fill="#53237D"/>
<g id="Group 1">
<g id="Flower 3">
<path id="Vector_2" d="M403.206 937.459C440.878 937.459 471.416 906.924 471.416 869.256C471.416 831.588 440.878 801.052 403.206 801.052C365.534 801.052 334.995 831.588 334.995 869.256C334.995 906.924 365.534 937.459 403.206 937.459Z" fill="#53237D"/>
<path id="Vector 2_2" d="M402.587 992.598L403.147 868.88" stroke="#3F3D56" stroke-width="2" stroke-miterlimit="10"/>
<path id="Vector 3_2" d="M403.147 886.375C412.81 886.375 420.644 878.542 420.644 868.88C420.644 859.218 412.81 851.385 403.147 851.385C393.483 851.385 385.649 859.218 385.649 868.88C385.649 878.542 393.483 886.375 403.147 886.375Z" fill="#3F3D56"/>
<path id="Vector 4_2" d="M402.802 945.13C402.802 945.13 400.545 891.364 349.276 897.38L402.802 945.13Z" fill="#3F3D56"/>
</g>
<g id="Flower 2">
<path id="Vector 5_2" d="M117.463 800.527C155.133 800.527 185.672 769.992 185.672 732.325C185.672 694.657 155.133 664.121 117.463 664.121C79.7903 664.121 49.2513 694.657 49.2513 732.325C49.2513 769.992 79.7903 800.527 117.463 800.527Z" fill="#53237D"/>
<path id="Vector 6_2" d="M113.6 984.114L117.525 732.249" stroke="#3F3D56" stroke-width="2" stroke-miterlimit="10"/>
<path id="Vector 7_2" d="M117.525 749.744C127.189 749.744 135.023 741.911 135.023 732.249C135.023 722.587 127.189 714.754 117.525 714.754C107.862 714.754 100.028 722.587 100.028 732.249C100.028 741.911 107.862 749.744 117.525 749.744Z" fill="#3F3D56"/>
<path id="Vector 8_2" d="M116.414 803.491C116.414 803.491 114.753 749.703 63.4198 755.153L116.414 803.491Z" fill="#3F3D56"/>
<path id="Vector 9_2" d="M113.674 979.305C113.674 979.305 126.533 876.12 61.6281 870.109" stroke="#3F3D56" stroke-width="2" stroke-miterlimit="10"/>
<path id="Vector 10_2" d="M61.6281 887.605C71.2916 887.605 79.1255 879.772 79.1255 870.108C79.1255 860.446 71.2916 852.613 61.6281 852.613C51.9645 852.613 44.1307 860.446 44.1307 870.108C44.1307 879.772 51.9645 887.605 61.6281 887.605Z" fill="#3F3D56"/>
</g>
<g id="Flower 1">
<path id="Vector 11_2" d="M264.148 649.113C301.82 649.113 332.359 618.577 332.359 580.91C332.359 543.242 301.82 512.706 264.148 512.706C226.477 512.706 195.937 543.242 195.937 580.91C195.937 618.577 226.477 649.113 264.148 649.113Z" fill="#53237D"/>
<path id="Vector 12_2" d="M264.191 993.826V581.16" stroke="#3F3D56" stroke-width="2" stroke-miterlimit="10"/>
<path id="Vector 13_2" d="M264.191 598.46C273.855 598.46 281.689 590.627 281.689 580.965C281.689 571.302 273.855 563.469 264.191 563.469C254.528 563.469 246.694 571.302 246.694 580.965C246.694 590.627 254.528 598.46 264.191 598.46Z" fill="#3F3D56"/>
<path id="Vector 14_2" d="M210.449 897.026C220.112 897.026 227.947 889.193 227.947 879.53C227.947 869.868 220.112 862.035 210.449 862.035C200.786 862.035 192.952 869.868 192.952 879.53C192.952 889.193 200.786 897.026 210.449 897.026Z" fill="#3F3D56"/>
<path id="Vector 15_2" d="M264.191 670.332C264.191 670.332 261.691 616.577 210.449 622.825L264.191 670.332Z" fill="#3F3D56"/>
<path id="Vector 16_2" d="M264.191 822.724C264.191 822.724 261.691 768.968 210.449 775.217L264.191 822.724Z" fill="#3F3D56"/>
<path id="Vector 17_2" d="M264.191 989.016C264.191 989.016 275.439 884.529 210.449 879.53" stroke="#3F3D56" stroke-width="2" stroke-miterlimit="10"/>
<path id="Vector 18_2" d="M319.006 732.912C328.67 732.912 336.504 725.079 336.504 715.416C336.504 705.754 328.67 697.921 319.006 697.921C309.343 697.921 301.509 705.754 301.509 715.416C301.509 725.079 309.343 732.912 319.006 732.912Z" fill="#3F3D56"/>
<path id="Vector 19_2" d="M265.264 819.329C265.264 819.329 254.016 720.415 319.006 715.416" stroke="#3F3D56" stroke-width="2" stroke-miterlimit="10"/>
</g>
<path id="bubble3" d="M410.074 675.898C405.224 675.898 400.481 674.46 396.448 671.765C392.416 669.07 389.272 665.24 387.416 660.759C385.56 656.278 385.074 651.348 386.02 646.59C386.966 641.833 389.302 637.463 392.732 634.034C396.161 630.605 400.532 628.269 405.29 627.323C410.048 626.376 414.978 626.862 419.46 628.718C423.942 630.574 427.772 633.718 430.467 637.75C433.162 641.783 434.6 646.525 434.6 651.375C434.592 657.877 432.006 664.11 427.409 668.707C422.811 673.304 416.577 675.89 410.074 675.898ZM410.074 629.081C405.664 629.081 401.354 630.388 397.688 632.838C394.021 635.287 391.163 638.77 389.475 642.843C387.788 646.917 387.347 651.399 388.206 655.724C389.067 660.048 391.19 664.021 394.309 667.139C397.427 670.256 401.4 672.38 405.724 673.24C410.05 674.1 414.532 673.658 418.607 671.972C422.681 670.284 426.163 667.426 428.613 663.76C431.063 660.094 432.371 655.784 432.371 651.375C432.364 645.464 430.013 639.797 425.832 635.618C421.653 631.438 415.985 629.087 410.074 629.081Z" fill="#3F3D56"/>
<path id="bubble1" d="M24.3488 557.74C19.498 557.74 14.7563 556.302 10.7229 553.607C6.68967 550.913 3.54612 547.083 1.68981 542.602C-0.166501 538.121 -0.652191 533.19 0.294147 528.433C1.24048 523.676 3.57635 519.306 7.00637 515.877C10.4364 512.447 14.8064 510.111 19.564 509.165C24.3216 508.219 29.253 508.705 33.7344 510.561C38.216 512.417 42.0465 515.56 44.7413 519.593C47.4362 523.626 48.8747 528.367 48.8747 533.217C48.8673 539.719 46.2811 545.952 41.6831 550.55C37.0852 555.147 30.8513 557.733 24.3488 557.74ZM24.3488 510.923C19.939 510.923 15.6283 512.231 11.9616 514.681C8.29505 517.13 5.43727 520.612 3.74972 524.686C2.06217 528.759 1.62064 533.242 2.48094 537.566C3.34125 541.891 5.46476 545.863 8.58295 548.981C11.7011 552.099 15.674 554.222 19.999 555.083C24.324 555.943 28.8071 555.501 32.8812 553.814C36.9553 552.127 40.4376 549.269 42.8875 545.603C45.3374 541.937 46.6451 537.626 46.6451 533.217C46.6384 527.307 44.2871 521.64 40.1072 517.46C35.9272 513.281 30.2601 510.93 24.3488 510.923Z" fill="#3F3D56"/>
<path id="bubble2" d="M481.423 729.403C489.427 729.403 495.915 722.916 495.915 714.912C495.915 706.909 489.427 700.421 481.423 700.421C473.418 700.421 466.93 706.909 466.93 714.912C466.93 722.916 473.418 729.403 481.423 729.403Z" fill="#3F3D56"/>
<path id="Vector 20_2" d="M265.148 1196.46C384.593 1196.46 481.422 1099.64 481.422 980.209H48.8745C48.8745 1099.64 145.704 1196.46 265.148 1196.46Z" fill="#53237D"/>
</g>
</g>
</g>
<defs>
<clipPath id="clip0">
<rect width="1692" height="1288" fill="white"/>
</clipPath>
</defs>
</svg>
