<?xml version="1.0" encoding="UTF-8" standalone="no"?><!DOCTYPE svg PUBLIC "-//W3C//DTD SVG 1.1//EN" "http://www.w3.org/Graphics/SVG/1.1/DTD/svg11.dtd"><svg width="100%" height="100%" viewBox="0 0 500 500" version="1.1" xmlns="http://www.w3.org/2000/svg" xmlns:xlink="http://www.w3.org/1999/xlink" xml:space="preserve" xmlns:serif="http://www.serif.com/" style="fill-rule:evenodd;clip-rule:evenodd;stroke-linejoin:round;stroke-miterlimit:2;"><g><path d="M277.281,381.75c-228.029,-32.374 -298.008,-168.864 -195.279,-247.07c88.887,-67.667 164.783,39.135 164.783,39.135c0,0 -1.118,-57.108 57.297,-78.553c86.068,-31.597 123.309,47.9 115.782,102.581c-17.088,124.156 -142.583,183.907 -142.583,183.907Z" style="fill:#c3d9ef;fill-rule:nonzero;"/><path d="M225.251,234.397c-49.322,-21.279 -93.431,29.393 -142.331,27.213c-10.786,8.051 -14.539,23.608 -8.675,35.307c47.622,38.772 115.288,23.848 168.006,2.31c6.369,-23.331 -0.509,-50.388 -17,-64.83Z" style="fill:#08c;fill-rule:nonzero;"/><clipPath id="_clip1"><path d="M225.251,234.397c-49.322,-21.279 -93.431,29.393 -142.331,27.213c-10.786,8.051 -14.539,23.608 -8.675,35.307c47.622,38.772 115.288,23.848 168.006,2.31c6.369,-23.331 -0.509,-50.388 -17,-64.83Z" clip-rule="nonzero"/></clipPath><g clip-path="url(#_clip1)"><path d="M121.977,326.09c50.488,1.065 51.289,-83.839 11.988,-100.021c-132.928,-29.569 -69.208,144.525 -11.988,100.021Z" style="fill:#f5bea9;fill-rule:nonzero;"/></g><path d="M280.245,231.507c-25.465,4.088 -51.011,11.702 -75.99,17.947c-18.549,10.898 -22.245,34.528 -16.42,53.46c0.55,25.803 21.217,121.159 24.621,146.687l124.447,0c10.35,-35.052 48.652,-122.27 45.096,-206.459c-42.584,-11.948 -70.533,-22.989 -101.754,-11.635Z" style="fill:#0071bb;fill-rule:nonzero;"/><path d="M335.676,177.69c-3.711,18.665 -9.153,45.731 -10.173,61.037c-14.827,12.486 -34.36,15.597 -52.802,10.173c2.217,-19.562 3.391,-39.708 3.391,-59.584c15.101,-44.535 45.122,-35.729 59.584,-11.626Z" style="fill:#f5bea9;fill-rule:nonzero;"/><clipPath id="_clip2"><path d="M335.676,177.69c-3.711,18.665 -9.153,45.731 -10.173,61.037c-14.827,12.486 -34.36,15.597 -52.802,10.173c2.217,-19.562 3.391,-39.708 3.391,-59.584c15.101,-44.535 45.122,-35.729 59.584,-11.626Z" clip-rule="nonzero"/></clipPath><g clip-path="url(#_clip2)"><path d="M270.764,214.022c3.297,6.725 7.1,13.534 13.321,17.681c22.481,-10.847 32.145,-16.996 34.636,-41.902c-21.953,-31.363 -60.267,-2.856 -47.957,24.221Z" style="fill:#e58c80;fill-rule:nonzero;"/></g><path d="M281.164,109.633c-7.106,-4.497 -12.305,0.595 -9.763,8.221c-5.435,-2.002 -9.482,1.29 -8.048,7.022c0.518,-2.323 1.603,-2.722 3.767,-3.083c-3.966,7.425 2.621,10.961 9.42,10.961c11.139,-1.713 15.313,-19.234 4.624,-23.121Z" style="fill:#3f4d89;fill-rule:nonzero;"/><path d="M268.341,130.702c0.683,17.146 -5.47,33.176 -14.048,47.473c-4.257,15.471 -0.695,30.945 15.502,35.363c21.604,3.919 45.27,-7.896 50.379,-30.035c21.604,-1.242 31.841,-36.875 16.118,-56.136c-15.724,-19.262 -57.407,-22.153 -67.951,3.335Z" style="fill:#f5bea9;fill-rule:nonzero;"/><path d="M274.941,151.409c-1.942,-3.15 -4.828,-4.116 -6.64,0.121c-0.267,-0.683 -0.508,-1.363 -0.747,-2.059c2.973,-4.838 6.417,-1.956 7.387,1.938Z" style="fill:#3d4985;fill-rule:nonzero;"/><path d="M290.755,120.423c11.166,0.931 22.636,-6.128 28.088,8.05c-1.348,5.841 -3.58,11.935 0,17.469c-6.383,3.724 -6.614,15.02 -1.884,20.21c3.655,-2.742 7.576,-5.062 12.16,-5.481c1.541,6.165 2.051,13.452 5.994,18.497c14.245,-4.382 8.574,-28.194 11.304,-39.22c3.636,-6.665 1.809,-14.728 -5.994,-17.298c-2.041,-5.613 -6.426,-12.074 -13.017,-10.962c-9.333,-2.872 -14.419,-17.788 -26.032,-11.303c-5.043,-4.126 -12.989,-3.386 -15.586,3.254c-10.102,1.554 -10.597,12.12 -3.597,17.983c2.028,4.044 6.186,5.392 10.106,3.254c-1.532,-1.361 -2.337,-2.227 -1.542,-4.453Z" style="fill:#3f4d89;fill-rule:nonzero;"/><path d="M265.677,168.971c-5.349,4.662 -12.345,4.298 -18.892,4.844c0.337,2.374 1.597,2.409 3.632,3.149c-6.206,5.809 -9.926,15.509 -6.297,23.494c0.653,-1.003 1.445,-1.766 2.18,-2.664c-0.825,8.541 0.295,19.59 9.93,21.072c10.343,4.246 21.639,1.315 31.488,-2.907c6.121,0.912 10.51,-1.431 14.049,-6.297c6.076,0.676 9.727,-3.798 12.11,-8.962c5.869,-3.511 5.767,-9.865 6.297,-16.228c-1.603,-7.097 -1.087,-14.435 0.211,-21.574c-2.308,-1.661 -3.228,-4.372 -4.111,-7.022c-5.058,8.047 -17.163,11.978 -26.546,9.419c-5.989,1.749 -10.001,6.646 -16.785,3.255c-1.02,3.668 1.03,5.942 4.282,7.193c-0.197,-0.807 -0.219,-1.314 -0.342,-2.055c5.007,2.456 11.457,1.597 16.27,-1.028c4.376,8.23 1.676,20.52 -5.481,26.376c-0.801,-1.106 -1.8,-1.972 -2.74,-2.912c-2.28,6.982 -14.366,12.872 -20.381,9.591c-1.266,-2.887 0.039,-5.965 1.028,-8.735c-4.211,-1.957 -7.513,1.225 -9.078,5.138c-4.493,-6.493 -3.104,-12.802 0.172,-19.353c-0.687,-2.389 0.327,-4.585 1.198,-6.851c0.404,1.017 0,1.912 0,2.912c2.421,-1.584 5.25,-1.35 7.879,-2.227c3.64,-2.868 1.819,-5.934 -0.073,-7.628Z" style="fill:#3f4d89;fill-rule:nonzero;"/><path d="M277.303,143.054c-1.191,7.492 -5.915,13.145 -12.595,16.228c-6.41,6.612 -2.742,16.489 6.782,14.291c10.556,-3.514 17.78,-28.343 5.813,-30.519Z" style="fill:#e58c80;fill-rule:nonzero;"/><path d="M260.349,178.417c9.342,-0.295 19.507,-0.432 28.58,-2.907c-4.201,15.405 -24.231,29.769 -28.58,2.907Z" style="fill:#3d4985;fill-rule:nonzero;"/><clipPath id="_clip3"><path d="M260.349,178.417c9.342,-0.295 19.507,-0.432 28.58,-2.907c-4.201,15.405 -24.231,29.769 -28.58,2.907Z" clip-rule="nonzero"/></clipPath><g clip-path="url(#_clip3)"><path d="M263.013,173.088c0.925,3.712 1.874,7.496 2.785,11.142c2.34,1.566 5.127,0.393 7.266,-0.969c2.7,0.901 5.272,0.557 7.025,-1.696c2.477,0.956 4.44,-0.201 6.176,-1.937c1.985,0.3 3.176,-0.962 4.239,-2.422c0.971,-16.685 -20.773,-4.678 -27.491,-4.118Z" style="fill:#fff;fill-rule:nonzero;"/></g><path d="M302.751,147.667c2.669,-10.978 -10.117,-19.498 -17.998,-10.634c0.771,4.339 6.619,4.788 10.229,3.887c3.42,1.3 5.614,4.747 7.769,6.747Z" style="fill:#3f4d89;fill-rule:nonzero;"/><path d="M265.649,152.361c-7.107,-8.781 0.806,-21.951 11.72,-17.31c1.158,4.252 -3.934,7.159 -7.583,7.889c-2.535,2.638 -3.045,6.691 -4.137,9.421Z" style="fill:#3f4d89;fill-rule:nonzero;"/><path d="M320.042,163.583c1.449,-3.34 2.853,-6.996 5.138,-9.934c7.193,-9.248 18.882,-3.168 13.53,7.536c-4.427,8.854 -19.869,16.815 -18.668,2.398Z" style="fill:#f5bea9;fill-rule:nonzero;"/><path d="M332.891,153.227c-5.121,0.202 -7.931,5.807 -9.447,10.052c3.523,1.462 1.379,6.236 -1.453,7.266c4.501,2.975 11.449,-5.919 7.387,-8.356c-0.493,-4.596 1.156,-6.606 3.513,-8.962Z" style="fill:#e58c80;fill-rule:nonzero;"/><path d="M298.98,151.653c-2.834,-3.15 -7.044,-4.115 -9.688,0.121c-0.39,-0.683 -0.741,-1.363 -1.09,-2.059c4.339,-4.838 9.363,-1.956 10.778,1.938Z" style="fill:#3d4985;fill-rule:nonzero;"/><path d="M296.921,153.821c4.257,0 7.707,2.377 7.707,5.309c0,2.932 -3.45,5.309 -7.707,5.309c-4.257,0 -7.707,-2.377 -7.707,-5.309c0,-2.932 3.45,-5.309 7.707,-5.309Z" style="fill:#e58c80;fill-rule:nonzero;"/><path d="M339.551,123.556c2.407,-3.633 -0.058,-7.694 -2.301,-10.778c5.219,1.898 6.851,8.503 2.301,10.778Z" style="fill:#3f4d89;fill-rule:nonzero;"/><path d="M339.381,123.771c3.867,-2.01 7.645,0.87 10.475,3.425c-1.336,-5.39 -7.733,-7.709 -10.475,-3.425Z" style="fill:#3f4d89;fill-rule:nonzero;"/><path d="M283.192,128.321c-3.446,-2.668 -2.416,-7.306 -1.281,-10.946c-4.334,3.473 -3.758,10.252 1.281,10.946Z" style="fill:#3f4d89;fill-rule:nonzero;"/><path d="M189.75,407.057c-1.413,-7.992 -2.735,-16.004 -3.572,-24.067c3.061,-2.791 5.243,1.103 5.808,4.295c0.979,4.686 3.112,8.984 5.826,12.889c-0.015,-3.145 -1.663,-6.067 -2.431,-9.122c-0.077,-2.207 -0.003,-4.366 0.2,-6.585c2.288,-1.037 3.678,0.81 4.71,2.715c0.507,2.867 1.014,5.733 1.521,8.6c1.511,3.736 3.222,7.464 5.475,10.904c0.063,-3.835 -1.484,-7.95 -2.985,-11.48c-0.168,-2.298 -1.13,-4.484 -1.348,-6.857c2.501,-0.775 4.108,0.02 5.807,1.975c1.456,4.438 2.99,8.968 5.803,12.756c5.713,5.648 9.924,12.067 13.752,19.128c-13.016,3.644 -34.294,-7.753 -38.566,-15.151Z" style="fill:#e58c80;fill-rule:nonzero;"/><path d="M249.908,423.167c-2.522,-6.265 -8.307,-10.45 -13.703,-14.225c-4.315,-1.963 -9.233,-3.118 -13.608,-4.417c-4.815,-3.388 -10.033,-6.598 -14.637,-10.239c-2.396,1.939 -1.774,4.151 -1.788,6.866c2.516,3.333 5.654,6.11 8.441,9.151c2.529,1.991 3.629,4.907 5.155,7.549c-4.396,-0.862 -8.723,-2.299 -12.938,-3.717c-5.266,-2.788 -10.515,-5.525 -14.808,-9.663c-3.892,-5.792 -8.044,-11.495 -11.572,-17.604c-2.271,-3.052 -4.558,-1.65 -6.242,-1.352c1.021,5.243 4.15,10.141 5.982,15.317c3.131,4.865 6.02,9.931 8.676,15.113c4.179,3.014 7.952,6.563 11.849,9.913c1.531,2.729 2.4,4.461 4.922,6.226c9.943,1.553 19.72,6.586 29.985,7.525c12.684,1.156 20.254,-6.111 14.286,-16.443Z" style="fill:#f5bea9;fill-rule:nonzero;"/><path d="M382.075,245.853c-41.67,7.68 -54.912,71.208 -32.89,98.605c-2.516,10.062 -3.684,20.714 -5.508,30.759c-50.871,-7.416 -47.641,48.668 -101.023,42.862c-7.61,7.528 -13.494,9.189 -10.006,18.59c52.638,21.497 106.201,17.577 160.766,3.316c15.16,-21.197 42.762,-39.543 47.244,-66.656c31.9,-36.439 9.568,-110.307 -58.583,-127.476Z" style="fill:#f5bea9;fill-rule:nonzero;"/><clipPath id="_clip4"><path d="M381.999,243.142c-43.116,7.947 -56.818,73.679 -34.032,102.027c-2.604,10.411 -3.812,21.433 -5.699,31.826c-52.637,-7.674 -55.968,40.903 -111.203,34.896c-7.874,7.79 -7.289,18.961 -3.679,28.689c54.465,22.243 123.5,21.463 179.96,6.706c15.685,-21.933 30.631,-44.19 35.268,-72.244c33.007,-37.704 9.901,-114.134 -60.615,-131.9Z"/></clipPath><g clip-path="url(#_clip4)"><path d="M322.63,356.958c47.473,-1.451 92.089,17.275 121.172,53.456c29.82,11.724 50.169,-64.823 47.697,-88.793c-16.275,-157.822 -229.313,-104.242 -168.869,35.337Z" style="fill:#08c;fill-rule:nonzero;"/></g><path d="M343.677,375.217c12.868,5.249 27.061,15.596 28.266,30.42c8.736,-20.018 -14.938,-31.574 -28.266,-30.42Z" style="fill:#e58c80;fill-rule:nonzero;"/><path d="M261.957,396.646c5.518,7.259 13.906,11.022 21.796,15.094c8.535,0.575 12.103,-4.518 14.6,-12.272c-4.305,-13.209 -18.499,-17.821 -30.53,-16.815c-3.643,-10.951 -13.4,-18.721 -24.453,-20.183c0.887,-7.801 -1.952,-15.41 -7.23,-20.963c-8.93,-3.08 -17.615,2.84 -15.203,12.079c3.41,5.475 6.116,10.607 5.874,15.775c-53.475,6.262 7.389,87.901 35.146,27.285Z" style="fill:#3f4d89;fill-rule:nonzero;"/><path d="M259.802,336.895c-30.843,10.237 -23.054,28.899 -4.435,43.752c16.117,6.714 29.971,8.479 34.95,-17.93c-0.868,-3.78 -2.609,-7.239 -4.923,-10.291c6.537,-10.168 -5.515,-22.486 -3.76,-7.328c-2.298,-11.632 -17.948,-10.258 -7.517,-0.773c-5.66,-3.728 -14.315,-7.43 -14.315,-7.43Z" style="fill:#3f4d89;fill-rule:nonzero;"/><path d="M263.189,380.106c-7.701,-1.342 -21.412,-6.448 -22.49,-20.416c-1.346,17.185 8.108,21.91 22.49,20.416Z" style="fill:#272151;fill-rule:nonzero;"/><path d="M285.954,358.371c2.465,-6.479 22.744,-7.318 15.397,1.794c6.418,2.92 4.772,11.587 -1.271,12.736c-4.594,8.046 -16.06,-0.235 -16.853,-7.088c-0.906,-3.435 0.586,-5.567 2.727,-7.442Z" style="fill:#3f4d89;fill-rule:nonzero;"/><path d="M263.024,340.176c8.596,-2.488 2.032,-24.189 -2.32,-16.055c-4.294,-0.706 -10.847,0.449 -8.155,5.694c-7.12,9.625 4.177,12.658 10.475,10.361Z" style="fill:#3f4d89;fill-rule:nonzero;"/><path d="M256.648,353.999c4.913,-1.868 11.676,0.897 9.074,7.273c0.307,13.293 -8.638,13.736 -15.948,6.045c-4.458,-6.445 -2.313,-13.131 6.874,-13.318Z" style="fill:#c3d9ef;fill-rule:nonzero;"/><path d="M274.591,362.935c1.611,0.991 0.927,4.792 -0.774,5.622c-1.385,0.675 -3.939,-0.784 -4,-2.325c-0.076,-1.932 3.126,-4.311 4.774,-3.297Z" style="fill:#272151;fill-rule:nonzero;"/><path d="M256.225,348.11c0.866,1.681 -1.686,4.58 -3.57,4.411c-1.536,-0.137 -2.967,-2.707 -2.222,-4.056c0.934,-1.694 4.905,-2.074 5.792,-0.355Z" style="fill:#272151;fill-rule:nonzero;"/><path d="M257.222,338.559c3.536,-1.88 5.6,-8.002 3.262,-11.43c-0.866,0.738 -1.219,1.714 -1.625,2.722c-6.046,-0.675 -7.904,8.424 -1.637,8.708Z" style="fill:#c3d9ef;fill-rule:nonzero;"/><path d="M288.716,361.424c2.647,-2.721 6.223,-3.504 9.603,-1.403c-0.121,0.723 -0.732,1.128 -1.26,1.591c4.098,7.533 -2.884,12.205 -8.451,6.349c0.502,-0.79 0.497,-1.608 0.452,-2.434c3.809,1.04 1.489,-3.123 -0.344,-4.103Z" style="fill:#f5bea9;fill-rule:nonzero;"/><path d="M274.117,344.325c-11.093,-4.149 -10.057,5.791 0.487,6.401c-15.581,1.988 -11.864,-12.59 -0.487,-6.401Z" style="fill:#272151;fill-rule:nonzero;"/><path d="M295.898,398.752c-4.831,-0.918 -13.366,3.054 -12.483,8.807c1.782,2.748 4.592,0.359 6.539,-1.308c0.957,3.361 3.093,-1.231 3.691,-2.694c3.146,2.324 2.499,-3.203 2.252,-4.805l0.001,0Z" style="fill:#c3d9ef;fill-rule:nonzero;"/><path d="M236.124,344.786c-4.308,-5.102 -16.342,-0.492 -12.482,8.807c1.781,2.749 4.59,0.359 6.538,-1.307c0.957,3.36 3.093,-1.231 3.692,-2.695c3.145,2.325 2.498,-3.201 2.252,-4.805Z" style="fill:#c3d9ef;fill-rule:nonzero;"/><path d="M217.423,379.011c0.001,-11.185 -6.873,-18.554 -16.32,-23.572c-13.184,-3.451 -19.507,15.356 -11.503,22.457c7.452,3.693 14.15,9.914 19.746,16.237c8.09,0.255 8.05,-10.235 8.077,-15.122Z" style="fill:#3f4d89;fill-rule:nonzero;"/><path d="M231.032,404.348c9.219,1.17 17.886,-7.343 14.386,-16.548c7.948,-1.854 -3.479,-10.491 -7.589,-11.15c4.503,-4.025 -2.728,-4.413 -5.955,-3.798c-1.646,-6.125 -7.646,-0.379 -9.285,2.894c-2.219,-6.872 -8.33,1.58 -9.724,4.988c-11.915,9.853 7.858,32.637 18.167,23.614Z" style="fill:#c3d9ef;fill-rule:nonzero;"/><path d="M229.707,401.764c-9.635,-5.679 -19.474,-3.499 -28.593,2.093c-9.667,9.606 3.325,24.602 13.507,21.312c6.964,-4.546 15.725,-7.158 24.014,-8.769c4.326,-6.84 -4.731,-12.131 -8.928,-14.636Z" style="fill:#3f4d89;fill-rule:nonzero;"/><path d="M200.409,359.634c-5.886,-3.155 -15.371,5.57 -8.354,12.79c2.67,1.897 4.4,-1.36 5.595,-3.627c2.129,2.77 2.421,-2.285 2.437,-3.866c3.782,1.001 1.142,-3.898 0.322,-5.297Z" style="fill:#c3d9ef;fill-rule:nonzero;"/><path d="M204.712,407.12c-5.859,3.203 -3.741,15.916 6.141,13.988c3.048,-1.197 1.268,-4.426 0.022,-6.668c3.485,-0.267 -0.589,-3.276 -1.904,-4.154c2.905,-2.619 -2.639,-3.087 -4.259,-3.166Z" style="fill:#c3d9ef;fill-rule:nonzero;"/><path d="M294.908,355.288c8.225,-5.21 1.76,-13.685 -5.403,-6.246c-4.436,-5.215 -7.86,5.659 -1.777,7.134c-1.314,1.453 -0.975,2.857 -0.047,4.239c-6.234,2.904 -1.573,12.638 2.389,5.757c4.989,9.815 14.007,0.311 5.488,-5.76c1.383,-2.199 -0.65,-5.124 -0.65,-5.124Z" style="fill:#fff;fill-rule:nonzero;"/><path d="M249.908,423.167c-2.522,-6.265 -8.307,-10.45 -13.703,-14.225c-4.315,-1.963 -9.233,-3.118 -13.608,-4.417c-4.815,-3.388 -10.033,-6.598 -14.637,-10.239c-2.396,1.939 -1.774,4.151 -1.788,6.866c2.516,3.333 5.654,6.11 8.441,9.151c2.529,1.991 3.629,4.907 5.155,7.549c-4.396,-0.862 -8.723,-2.299 -12.938,-3.717c-5.266,-2.788 -20.62,-3.371 -17.964,1.811c4.179,3.014 7.952,6.563 11.849,9.913c1.531,2.729 2.4,4.461 4.922,6.226c9.943,1.553 19.72,6.586 29.985,7.525c12.684,1.156 20.254,-6.111 14.286,-16.443Z" style="fill:#f5bea9;fill-rule:nonzero;"/><path d="M111.893,119.923c-0.186,20.013 -1.384,53.452 -14.299,45.557c-3.183,12.742 10.401,22.613 21.107,15.757c-3.519,10.063 4.001,15.775 13.277,16.442c13.162,-1.372 26.319,-9.385 31.659,-21.923c12.803,7.999 31.846,13.178 37.447,-5.137c-5.845,-1.082 -7.889,-4.467 -8.851,-10.277c7.617,4.09 12.871,-0.488 15.319,-7.878c-10.634,0.868 -13.911,-12.191 -16.68,-20.552c-6.864,-28.092 -42.367,-55.662 -66.724,-28.431c-3.546,3.568 -10.197,9.814 -12.255,16.442Z" style="fill:#08c;fill-rule:nonzero;"/><path d="M111.893,119.923c-0.186,20.013 -1.384,53.452 -14.299,45.557c-3.183,12.742 10.401,22.613 21.107,15.757c-3.519,10.062 4.001,15.775 13.277,16.442c13.162,-1.372 26.319,-9.385 31.659,-21.923c12.803,7.999 31.846,13.178 37.447,-5.137c-5.845,-1.082 -7.889,-4.467 -8.851,-10.277c7.617,4.09 12.871,-0.488 15.319,-7.878c-10.634,0.868 -13.911,-12.191 -16.681,-20.552c-6.863,-28.092 -42.366,-55.662 -66.723,-28.431c-3.546,3.568 -10.197,9.814 -12.255,16.442Z" style="fill:#be2941;fill-rule:nonzero;"/><clipPath id="_clip5"><path d="M111.893,119.923c-0.186,20.013 -1.384,53.452 -14.299,45.557c-3.183,12.742 10.401,22.613 21.107,15.757c-3.519,10.062 4.001,15.775 13.277,16.442c13.162,-1.372 26.319,-9.385 31.659,-21.923c12.803,7.999 31.846,13.178 37.447,-5.137c-5.845,-1.082 -7.889,-4.467 -8.851,-10.277c7.617,4.09 12.871,-0.488 15.319,-7.878c-10.634,0.868 -13.911,-12.191 -16.681,-20.552c-6.863,-28.092 -42.366,-55.662 -66.723,-28.431c-3.546,3.568 -10.197,9.814 -12.255,16.442Z" clip-rule="nonzero"/></clipPath><g clip-path="url(#_clip5)"><path d="M97.426,165.48c2.864,11.854 12.383,14.688 21.752,7.022c-3.113,0.09 -5.444,-0.028 -8.05,-2.055c14.156,-4.508 20.662,-24.937 13.017,-37.679c-6.314,-12.56 -21.561,-19.328 -31.685,-6.165c-11.904,14.495 -0.638,27.669 4.966,38.877Z" style="fill:#e2656a;fill-rule:nonzero;"/></g><path d="M175.931,160.239c25.621,1.702 37.014,-19.579 41.03,-41.305c0.126,-5.831 -5.571,-8.086 -9.528,-7.941c-1.85,8.408 -10.182,12.643 -10.726,21.423c-7.871,3.197 -16.713,4.296 -22.005,11.656c-5.342,4.868 -1.598,12.4 1.229,16.166l0,0.001Z" style="fill:#f7c6b9;fill-rule:nonzero;"/><path d="M244.605,230.865c-16.481,-5.647 -23.726,-40.244 -46.989,-34.04c-24.777,-1.768 -92.656,16.93 -82.191,45.708c0.241,0.099 0.479,0.211 0.718,0.319c2.329,10.702 5.81,41.963 35.155,33.478c0.48,0.412 0.963,0.806 1.447,1.191c2.686,8.215 9.862,9.002 16.163,5.934c5.725,-0.606 11.903,-4.265 18.777,-12.514c7.014,18.303 26.676,20.454 35.121,1.454c15.756,9.634 21.515,-11.447 13.806,-23.011c12.902,1.941 15.694,-13.129 7.993,-18.519Z" style="fill:#44538c;fill-rule:nonzero;"/><path d="M216.284,276.116c2.164,9.128 -2.19,16.188 -6.103,24.015c-3.134,9.045 -24.133,2.716 -15.615,-8.236c2.817,-10.559 0.928,-16.66 8.964,-25.589c7.294,-4.035 11.76,4.352 12.754,9.81Z" style="fill:#3f4d89;fill-rule:nonzero;"/><path d="M186.326,228.148c3.924,15.735 9.798,30.947 13.98,46.59c4.64,2.695 8.498,0.853 11.892,-2.849c8.147,-14.619 15.872,-78.796 -17.392,-69.377c-13.71,-0.022 -15.582,17.32 -8.48,25.636Z" style="fill:#f7c6b9;fill-rule:nonzero;"/><clipPath id="_clip6"><path d="M186.326,228.148c3.924,15.735 9.798,30.947 13.98,46.59c4.64,2.695 8.498,0.853 11.892,-2.849c8.147,-14.619 15.872,-78.796 -17.392,-69.377c-13.71,-0.022 -15.582,17.32 -8.48,25.636Z" clip-rule="nonzero"/></clipPath><g clip-path="url(#_clip6)"><path d="M189.865,257.499c11.417,-12.856 -1.942,-43.719 21.92,-43.719c7.514,0 6.267,8.796 9.931,7.387c8.027,-27.155 -33.045,-28.234 -46.868,-14.412c-4.361,9.625 -2.345,44.666 8.841,50.259c1.845,0.922 4.506,0.181 6.176,0.485Z" style="fill:#f4a695;fill-rule:nonzero;"/></g><path d="M166.321,287.304c-2.164,9.128 2.19,16.187 6.103,24.014c3.135,9.045 26.148,3.119 17.631,-7.832c-2.817,-10.56 -2.944,-17.063 -10.98,-25.993c-7.294,-4.034 -11.76,4.353 -12.754,9.811Z" style="fill:#3f4d89;fill-rule:nonzero;"/><path d="M159.831,239.454c2.397,16.038 6.784,31.743 9.446,47.715c4.36,3.128 8.377,1.665 12.111,-1.695c9.511,-13.771 23.357,-76.91 -10.658,-70.725c-13.644,-1.337 -17.171,15.745 -10.899,24.705Z" style="fill:#f7c6b9;fill-rule:nonzero;"/><clipPath id="_clip7"><path d="M159.831,239.454c2.397,16.038 6.784,31.743 9.446,47.715c4.36,3.128 8.377,1.665 12.111,-1.695c9.511,-13.771 23.357,-76.91 -10.658,-70.725c-13.644,-1.337 -17.17,15.745 -10.899,24.705Z"/></clipPath><g clip-path="url(#_clip7)"><path d="M152.807,251.928c8.779,1.645 14.248,-0.757 17.197,-7.993c3.7,-9.081 4.829,-30.476 18.165,-25.432c2.702,1.021 4.422,1.253 6.056,-0.848c-3.97,-25.485 -39.745,-4.439 -42.75,12.595c-1.119,6.34 2.604,17.016 1.332,21.678Z" style="fill:#f4a695;fill-rule:nonzero;"/></g><path d="M141.501,196.954c-57.298,46.188 -10.107,56.786 10.619,55.49c17.031,-9.271 15.424,-35.91 36.651,-37.679c17.814,-12.702 31.986,-5.221 41.105,13.017c4.189,3.996 9.61,3.476 14.729,3.083c-10.914,-5.523 -19.766,-42.457 -73.303,-42.818c-13.697,-1.226 -21.412,2.382 -29.801,8.907Z" style="fill:#374084;fill-rule:nonzero;"/><path d="M137.312,196.291c-0.3,5.724 0.42,11.9 3.515,16.764c14.618,5.21 31.642,-0.08 44.343,-7.842c6.418,-7.117 2.174,-15.501 -3.515,-21.901c-13.057,-1.088 -35.909,0.801 -44.343,12.979Z" style="fill:#fff;fill-rule:nonzero;"/><path d="M183.81,175.026c4.688,-9.376 6.681,-25.387 2.906,-35.363c-9.699,0.746 -20.179,11.678 -30.276,9.204c-7.118,-1.924 -17.729,-3.303 -24.463,-0.242c-2.306,12.094 -4.878,30.958 4.315,39.131c-1.525,15.736 6.567,21.456 24.065,21.456c11.748,-0.385 27.328,-6.53 27.328,-19.411c-1.139,-6.267 -2.08,-7.667 -3.875,-14.775Z" style="fill:#374084;fill-rule:nonzero;"/><path d="M151.624,139.021c-0.055,9.859 2.66,25.028 15.387,21.327c2.879,-5.118 3.803,-11.211 5.231,-16.917c-5.603,-5.861 -14.771,-5.708 -20.618,-4.41Z" style="fill:#f5bea9;fill-rule:nonzero;"/><clipPath id="_clip8"><path d="M151.624,139.021c-0.055,9.859 2.66,25.028 15.387,21.327c2.879,-5.118 3.803,-11.211 5.231,-16.917c-5.603,-5.861 -14.771,-5.708 -20.618,-4.41Z" clip-rule="nonzero"/></clipPath><g clip-path="url(#_clip8)"><path d="M147.094,142.188c6.233,8.453 16.385,14.15 26.889,14.9c9.567,-4.383 6.087,-32.708 -5.651,-24.491c-6.973,-3.486 -26.327,-4.805 -21.238,9.591Z" style="fill:#f4a695;fill-rule:nonzero;"/></g><path d="M192.537,95.955c-0.158,5.758 6.413,18.246 12.986,14.302c-1.927,5.524 -6.98,6.609 -11.857,3.764c3.795,6.456 7.007,20.345 -2.258,23.714c-19.887,-8.76 -24.762,-43.938 1.129,-41.78Z" style="fill:#be2941;fill-rule:nonzero;"/><path d="M133.9,119.521c-0.103,28.46 14.463,28.542 24.291,29.456c4.922,2.188 9.473,2.786 13.319,-1.445c18.451,-4.938 19.728,-1.68 16.258,-27.424c8.053,-45.057 -63.034,-41.035 -53.868,-0.587Z" style="fill:#f7c6b9;fill-rule:nonzero;"/><path d="M189.426,97.984c2.229,4.83 2.822,10.804 -6.432,12.168c2.45,-8.153 -1.08,-12.979 -1.08,-12.979c0,0 8.376,10.517 -9.444,15.332c4.954,-7.077 -1.884,-17.604 -1.884,-17.604c7.33,19.083 -8.162,17.837 -8.162,17.837c2.382,-7.06 -0.197,-13.373 -0.197,-13.373c0,0 3.048,15.507 -17.945,13.19c5.869,-2.656 9.324,-12.104 9.324,-12.104c0,0 -5.078,11.055 -17.102,15.002c-2.612,10.032 -3.964,21.831 3.425,30.143c-59.198,-3.744 -14.438,-77.384 0.514,-70.048c36.19,-20.506 49.349,23.338 58.574,13.359c-1.377,6.463 -5.428,10.212 -9.591,9.077Z" style="fill:#e2656a;fill-rule:nonzero;"/><path d="M172.167,124.035c6.183,-1.693 -1.281,-7.956 -4.36,-3.997c-0.716,2.974 2.653,3.143 4.36,3.997Z" style="fill:#f4a695;fill-rule:nonzero;"/><path d="M138.263,123.815c-12.196,-16.286 -14.305,16.958 -0.171,9.249c1.652,-3.054 1.241,-6.305 0.171,-9.249Z" style="fill:#f5bea9;fill-rule:nonzero;"/><path d="M135.775,126.851c0.195,-3.112 -2.904,-6.125 -4.749,-1.551c0.974,-1.541 2.544,0.154 2.634,1.41c-2.096,1.242 -0.952,4.437 1.551,3.667c-2.264,-1.309 -1.259,-3.284 0.564,-3.526Z" style="fill:#f4a695;fill-rule:nonzero;"/><path d="M161.566,117.095c-3.529,-5.284 -11.019,-3.718 -11.909,2.106c-3.348,-0.064 -6.196,-1.534 -8.57,-2.829c1.954,0.75 4.194,1.301 6.567,1.184c-1.544,-0.71 -2.421,-1.755 -3.34,-2.764c1.239,1.057 2.776,1.657 4.898,1.448c1.966,-8.097 11.3,-4.265 12.354,0.855Z" style="fill:#3f4d89;fill-rule:nonzero;"/><path d="M176.283,115.985c2.715,-4.614 8.478,-3.246 9.162,1.839c2.577,-0.056 4.767,-1.339 6.595,-2.471c-1.504,0.655 -3.228,1.137 -5.053,1.035c1.188,-0.62 1.862,-1.533 2.569,-2.414c-0.953,0.923 -2.135,1.447 -3.768,1.264c-1.513,-7.07 -8.694,-3.724 -9.505,0.747Z" style="fill:#3f4d89;fill-rule:nonzero;"/><path d="M175.333,128.22c-4.81,2.589 -7.885,2.488 -12.474,-0.953c1.855,5.629 8.224,17.078 10.169,5.402c0.018,0.231 0.784,-3.267 2.305,-4.449Z" style="fill:#3f4d89;fill-rule:nonzero;"/><path d="M149.416,120.79c4.256,0 7.707,2.377 7.707,5.31c0,2.932 -3.451,5.309 -7.707,5.309c-4.256,0 -7.707,-2.377 -7.707,-5.309c0,-2.933 3.451,-5.31 7.707,-5.31Z" style="fill:#f1b1a8;fill-rule:nonzero;"/><path d="M183.81,120.204c2.919,0 5.285,1.965 5.285,4.391c0,2.426 -2.366,4.392 -5.285,4.392c-2.919,0 -5.285,-1.966 -5.285,-4.392c0,-2.426 2.366,-4.391 5.285,-4.391Z" style="fill:#f1b1a8;fill-rule:nonzero;"/><path d="M139.947,167.097c-25.864,4.429 -39.687,-16.002 -46.058,-37.663c-0.742,-5.914 4.811,-8.807 8.849,-9.076c2.765,8.351 11.681,11.779 13.159,20.647c8.338,2.419 17.442,2.605 23.597,9.529c5.942,4.386 2.929,12.436 0.453,16.563Z" style="fill:#f7c6b9;fill-rule:nonzero;"/><path d="M207.597,112.894c-1.567,-1.015 -2.37,-2.816 -2.947,-4.546c-1.259,-1.956 -3.564,-3.094 -5.639,-3.704c0.191,-1.487 0.999,-1.852 2.273,-1.852c1.738,-0.223 3.279,0.68 4.882,1.263c0.604,-0.462 1.05,-1.001 1.515,-1.599c0.055,-2.935 0.048,-5.849 -0.758,-8.67c0.722,-1.742 2.091,-0.817 2.947,0.253c0.475,1.594 1.22,3.096 1.515,4.713c0.392,-0.03 0.819,0.059 1.178,0.084c0.652,-2.183 0.252,-4.545 -0.084,-6.734c0.981,-1.111 2.075,-0.985 2.693,0.253c0.98,2.423 0.842,4.927 0.842,7.492c1.334,-1.797 1.852,-4.16 1.852,-6.398c0.836,-0.981 1.068,-0.633 1.852,-0.084c0.721,2.126 0.1,5.018 -0.505,6.986c0.425,0.41 0.77,0.884 1.094,1.347c1.197,-1.252 2.424,-2.541 3.367,-3.956c1.18,0.091 1.089,0.57 1.01,1.515c-0.252,2.372 -1.562,4.548 -2.357,6.734c-0.509,4.398 -1.052,9.986 -6.313,10.943c-1.506,-1.506 -7.141,-1.129 -8.417,-4.041l0,0.001Z" style="fill:#f7c6b9;fill-rule:nonzero;"/><path d="M102.838,121.299c1.276,-1.418 1.59,-3.408 1.699,-5.269c0.723,-2.265 2.694,-4 4.58,-5.154c-0.583,-1.417 -1.478,-1.562 -2.735,-1.223c-1.775,0.242 -3.055,1.543 -4.482,2.544c-0.718,-0.295 -1.302,-0.709 -1.92,-1.175c-0.835,-2.881 -1.603,-5.759 -1.558,-8.756c-1.174,-1.528 -2.279,-0.251 -2.839,1.032c-0.046,1.7 -0.382,3.379 -0.243,5.054c-0.395,0.074 -0.792,0.275 -1.14,0.397c-1.223,-1.981 -1.457,-4.418 -1.707,-6.668c-1.264,-0.836 -2.309,-0.42 -2.591,0.965c-0.323,2.652 0.479,5.086 1.162,7.617c-1.794,-1.419 -2.934,-3.613 -3.529,-5.821c-1.086,-0.745 -1.221,-0.341 -1.849,0.409c-0.147,2.29 1.234,4.979 2.356,6.76c-0.311,0.517 -0.526,1.078 -0.722,1.62c-1.514,-0.916 -3.068,-1.863 -4.375,-3.008c-1.139,0.403 -0.923,0.852 -0.593,1.763c0.879,2.273 2.751,4.073 4.116,6.018c1.672,4.205 3.693,9.575 9.138,9.119c1.086,-1.886 6.747,-3.011 7.232,-6.224Z" style="fill:#f7c6b9;fill-rule:nonzero;"/><path d="M217.538,106.48c-0.955,-2.067 -2.96,-3.626 -5.329,-3.33c1.328,1.195 2.526,2.838 2.604,4.662c-1.857,-1.65 -4.449,-2.964 -6.964,-3.148c2.736,1.499 6.861,3.654 6.54,7.508c0.86,-1.431 2.231,-2.471 3.33,-3.693c0.05,-0.718 -0.072,-1.397 -0.181,-1.999Z" style="fill:#f4a695;fill-rule:nonzero;"/><path d="M92.216,116.892c0.326,-2.254 1.804,-4.32 4.159,-4.711c-0.933,1.524 -1.613,3.44 -1.167,5.211c1.309,-2.111 3.419,-4.11 5.777,-5.002c-2.195,2.216 -5.535,5.458 -4.129,9.06c-1.232,-1.126 -2.842,-1.733 -4.245,-2.591c-0.252,-0.674 -0.328,-1.359 -0.395,-1.967Z" style="fill:#f4a695;fill-rule:nonzero;"/><path d="M128.488,115.84c-3.848,-14.029 0.219,-28.58 11.816,-37.555c-14.686,1.2 -25.05,28.033 -11.816,37.555Z" style="fill:#fff;fill-rule:nonzero;"/><path d="M120.108,86.377c-2.381,-5.049 -13.942,-2.257 -7.508,2.423c-4.925,2.791 -1.176,9.663 3.633,6.297c4.413,-2.483 6.862,-4.88 3.875,-8.72Z" style="fill:#c3d9ef;fill-rule:nonzero;"/><path d="M118.534,85.166c-4.696,-3.007 0.242,-13.418 3.028,-6.176c3.369,-8.153 11.794,1.127 5.813,4.117c-4.409,4.44 -4.687,6.732 -8.841,2.059Z" style="fill:#c3d9ef;fill-rule:nonzero;"/><path d="M121.683,90.495c-5.439,0.2 -8.77,14.058 -1.332,9.325c7.03,8.383 10.196,-6.101 1.332,-9.325Z" style="fill:#c3d9ef;fill-rule:nonzero;"/><path d="M124.105,85.772c3.227,-8.03 14.224,-2.149 6.296,1.453c9.026,5.513 -11.318,12.358 -6.296,-1.453Z" style="fill:#c3d9ef;fill-rule:nonzero;"/><path d="M118.171,92.675c1.464,1.789 5.743,0.612 6.782,-1.453c1.136,-2.26 -0.62,-6.926 -3.149,-6.903c-3.037,0.027 -5.557,6.006 -3.633,8.356Z" style="fill:#fff;fill-rule:nonzero;"/><path d="M200.306,274.738c-0.281,4.247 -1.92,12.326 -2.935,16.386c0,0 5.255,-1.787 10.212,1.747c7.283,-6.209 9.139,-34.488 -7.277,-18.134l0,0.001Z" style="fill:#f7c6b9;fill-rule:nonzero;"/><path d="M169.277,287.169c-0.381,8.693 3.1,12.874 6.528,20.416c4.523,-5.109 12.03,-4.671 12.03,-4.671c-1.558,-12.439 -6.447,-17.44 -6.447,-17.44c-3.418,-4.435 -9.92,-2.114 -12.111,1.695Z" style="fill:#f7c6b9;fill-rule:nonzero;"/><path d="M185.95,293.946c-3.958,-2.77 -12.293,0.464 -15.184,5.24c-2.23,-1.28 -2.553,-3.637 -2.553,-6.046c3.538,-4.562 13.255,-7.573 17.199,-3.628c1.967,1.664 1.207,3.319 0.538,4.434Z" style="fill:#fff;fill-rule:nonzero;"/><path d="M198.218,283.275c3.367,-3.059 11.539,-1.031 14.809,3.086c1.931,-1.461 1.952,-3.702 1.665,-5.953c-3.85,-3.84 -13.286,-5.494 -16.5,-1.339c-1.639,1.789 -0.732,3.244 0.026,4.206Z" style="fill:#fff;fill-rule:nonzero;"/><path d="M170.644,290.186c-1.042,-2.21 -6.1,-0.989 -3.285,1.059c-2.155,1.221 -0.514,4.228 1.589,2.755c1.931,-1.086 3.003,-2.135 1.696,-3.814Z" style="fill:#c3d9ef;fill-rule:nonzero;"/><path d="M169.955,289.655c-2.055,-1.315 0.106,-5.871 1.325,-2.702c1.473,-3.567 5.16,0.493 2.543,1.802c-1.929,1.942 -2.051,2.944 -3.868,0.9Z" style="fill:#c3d9ef;fill-rule:nonzero;"/><path d="M171.333,291.986c-2.38,0.088 -3.837,6.152 -0.583,4.08c3.076,3.668 4.461,-2.669 0.583,-4.08Z" style="fill:#c3d9ef;fill-rule:nonzero;"/><path d="M172.393,289.92c1.411,-3.513 6.222,-0.941 2.754,0.637c3.949,2.411 -4.952,5.406 -2.754,-0.637Z" style="fill:#c3d9ef;fill-rule:nonzero;"/><path d="M169.796,292.94c0.641,0.784 2.513,0.268 2.967,-0.635c0.497,-0.989 -0.271,-3.031 -1.377,-3.021c-1.329,0.013 -2.431,2.628 -1.59,3.656Z" style="fill:#fff;fill-rule:nonzero;"/><path d="M211.172,277.236c-0.241,-2.43 4.725,-3.982 3.363,-0.779c2.476,-0.061 2.614,3.362 0.052,3.18c-2.214,0.06 -3.672,-0.288 -3.415,-2.401Z" style="fill:#c3d9ef;fill-rule:nonzero;"/><path d="M211.491,276.428c1.087,-2.185 -3.108,-4.983 -2.525,-1.638c-3.097,-2.303 -4.173,3.075 -1.256,2.853c2.653,0.674 3.273,1.472 3.781,-1.215Z" style="fill:#c3d9ef;fill-rule:nonzero;"/><path d="M211.507,279.135c2.087,-1.148 6.452,3.304 2.597,3.201c-0.753,4.726 -5.199,0.002 -2.597,-3.201Z" style="fill:#c3d9ef;fill-rule:nonzero;"/><path d="M209.536,277.907c-3.016,-2.288 -5.821,2.392 -2.037,1.961c-2.147,4.099 7.027,2.093 2.037,-1.961Z" style="fill:#c3d9ef;fill-rule:nonzero;"/><path d="M213.315,279.164c-0.147,1 -2.017,1.521 -2.872,0.98c-0.934,-0.593 -1.324,-2.74 -0.37,-3.299c1.146,-0.673 3.436,1.004 3.242,2.319Z" style="fill:#fff;fill-rule:nonzero;"/><path d="M112.582,203.002c-18.081,22.696 -60.19,39.484 -53.919,74.533c5.789,15.137 14.37,23.695 30.535,26.925c16.185,-19.42 18.123,-44.9 23.18,-68.739c4.1,-11.671 11.604,-22.639 20.161,-31.506c-1.203,-10.626 -14.526,-9.955 -19.957,-1.213Z" style="fill:#f5bea9;fill-rule:nonzero;"/><path d="M119.678,207.765c6.869,4.829 15.074,3.005 22.283,0.121c3.759,-1.308 7.651,-2.354 11.385,-3.755c4.192,-0.765 8.669,-0.613 12.716,-2.058c0.808,-0.752 1.327,-1.704 1.937,-2.544c-4.181,-1.09 -8.667,0.113 -12.958,-0.424c-1.204,0.029 -2.279,0.381 -3.606,0.075c-0.518,-0.383 -0.538,-0.781 -0.685,-1.37c1.885,-1.671 4.017,-3.025 6.08,-4.453c1.576,-1.154 3.765,-1.341 5.652,-1.97c1.6,0.395 3.213,0.514 4.881,0.514c0.878,-0.296 1.268,-0.929 1.713,-1.627c-2.202,-1.521 -5.255,-1.128 -7.622,-2.312c-2.72,-0.407 -5.386,0.239 -7.964,0.942c-1.626,0.425 -3.22,1.225 -4.795,1.798c1.871,-1.709 4.23,-2.914 6.422,-4.11c1.846,-0.56 3.84,-0.518 5.737,-0.771c1.759,0.649 3.542,1.37 5.396,1.798c0.598,-0.086 1.041,-0.478 1.456,-0.685c-1.048,-2.075 -3.117,-2.925 -5.139,-3.767c-2.9,-1.184 -6.547,-1.21 -9.762,-0.943c-1.954,1.033 -3.949,1.914 -6.08,2.569c1.132,-1.794 2.795,-3.297 4.453,-4.624c1.467,-0.377 3.087,-0.471 4.624,-0.342c1.839,0.693 3.792,1.37 5.823,1.37c0.886,-0.029 1.258,-0.455 1.884,-0.942c-2.279,-2.168 -5.414,-2.817 -8.135,-4.282c-2.895,-0.431 -6.05,-0.285 -8.906,0.428c-2.633,1.141 -4.422,3.642 -7.108,4.881c-4.803,4.129 -11.036,5.985 -15.585,10.533c-7.462,2.789 -13.437,13.23 -4.097,15.95Z" style="fill:#f5bea9;fill-rule:nonzero;"/><path d="M107.756,258.589c-2.417,12.684 -7.629,24.798 -18.893,31.729c14.702,-3.592 23.909,-17.935 18.893,-31.729Z" style="fill:#e58c80;fill-rule:nonzero;"/></g></svg>